G04*
G04 #@! TF.GenerationSoftware,Altium Limited,Altium Designer,20.0.2 (26)*
G04*
G04 Layer_Color=8388736*
%FSLAX25Y25*%
%MOIN*%
G70*
G01*
G75*
%ADD12C,0.01000*%
G36*
X124372Y169919D02*
X124416Y169913D01*
X124472Y169902D01*
X124527Y169880D01*
X124588Y169857D01*
X124644Y169824D01*
X124649Y169819D01*
X124671Y169808D01*
X124694Y169780D01*
X124732Y169746D01*
X124766Y169702D01*
X124810Y169647D01*
X124849Y169574D01*
X124882Y169497D01*
X124888Y169491D01*
X124893Y169469D01*
X124905Y169430D01*
X124916Y169380D01*
X124927Y169314D01*
X124932Y169230D01*
X124943Y169136D01*
Y169019D01*
Y167982D01*
Y167970D01*
Y167943D01*
Y167904D01*
X124949Y167854D01*
X124960Y167748D01*
X124966Y167704D01*
X124977Y167665D01*
X124982Y167654D01*
X124999Y167632D01*
X125027Y167599D01*
X125071Y167565D01*
X125076D01*
X125088Y167560D01*
X125104Y167554D01*
X125127Y167549D01*
X125160Y167537D01*
X125199Y167532D01*
X125249Y167526D01*
X125304D01*
Y167432D01*
X124116D01*
Y167526D01*
X124188D01*
X124216Y167532D01*
X124250D01*
X124327Y167554D01*
X124372Y167565D01*
X124405Y167587D01*
X124410D01*
X124416Y167593D01*
X124438Y167621D01*
X124466Y167660D01*
X124494Y167721D01*
Y167732D01*
X124499Y167748D01*
Y167771D01*
Y167804D01*
X124505Y167848D01*
Y167909D01*
Y167982D01*
Y169014D01*
Y169019D01*
Y169025D01*
Y169064D01*
X124499Y169114D01*
X124494Y169175D01*
X124488Y169247D01*
X124477Y169314D01*
X124455Y169375D01*
X124433Y169430D01*
X124427Y169436D01*
X124410Y169458D01*
X124388Y169486D01*
X124349Y169519D01*
X124305Y169547D01*
X124250Y169574D01*
X124177Y169597D01*
X124100Y169602D01*
X124077D01*
X124050Y169597D01*
X124011Y169591D01*
X123972Y169586D01*
X123922Y169574D01*
X123872Y169552D01*
X123817Y169530D01*
X123811Y169524D01*
X123794Y169513D01*
X123761Y169497D01*
X123722Y169469D01*
X123672Y169436D01*
X123611Y169391D01*
X123545Y169336D01*
X123473Y169269D01*
Y169241D01*
X123484Y169130D01*
Y167982D01*
Y167970D01*
Y167943D01*
Y167898D01*
X123489Y167848D01*
Y167793D01*
X123495Y167743D01*
X123500Y167699D01*
X123506Y167665D01*
X123511Y167654D01*
X123528Y167632D01*
X123561Y167599D01*
X123611Y167565D01*
X123617D01*
X123628Y167560D01*
X123645Y167554D01*
X123672Y167549D01*
X123711Y167537D01*
X123756Y167532D01*
X123811Y167526D01*
X123872D01*
Y167432D01*
X122657D01*
Y167526D01*
X122723D01*
X122762Y167532D01*
X122851Y167543D01*
X122890Y167554D01*
X122923Y167571D01*
X122929D01*
X122934Y167582D01*
X122968Y167610D01*
X123001Y167654D01*
X123029Y167715D01*
X123034Y167726D01*
Y167743D01*
X123040Y167765D01*
Y167798D01*
X123045Y167848D01*
Y167904D01*
Y167982D01*
Y169014D01*
Y169019D01*
Y169025D01*
Y169042D01*
Y169064D01*
X123040Y169114D01*
X123034Y169180D01*
X123023Y169247D01*
X123006Y169319D01*
X122984Y169386D01*
X122956Y169441D01*
X122951Y169447D01*
X122934Y169469D01*
X122906Y169497D01*
X122873Y169530D01*
X122823Y169558D01*
X122768Y169586D01*
X122701Y169608D01*
X122629Y169613D01*
X122607D01*
X122579Y169608D01*
X122540Y169602D01*
X122501Y169597D01*
X122451Y169580D01*
X122401Y169563D01*
X122346Y169536D01*
X122335Y169530D01*
X122313Y169513D01*
X122274Y169491D01*
X122224Y169458D01*
X122168Y169419D01*
X122113Y169375D01*
X122063Y169325D01*
X122013Y169269D01*
Y167982D01*
Y167970D01*
Y167943D01*
Y167898D01*
X122019Y167848D01*
Y167798D01*
X122024Y167743D01*
X122030Y167699D01*
X122041Y167665D01*
Y167660D01*
X122046Y167654D01*
X122063Y167626D01*
X122096Y167593D01*
X122135Y167560D01*
X122141D01*
X122146Y167554D01*
X122168Y167549D01*
X122196Y167543D01*
X122229Y167537D01*
X122274Y167532D01*
X122335Y167526D01*
X122401D01*
Y167432D01*
X121208D01*
Y167526D01*
X121264D01*
X121297Y167532D01*
X121375Y167543D01*
X121408Y167549D01*
X121436Y167560D01*
X121441D01*
X121447Y167565D01*
X121475Y167587D01*
X121508Y167621D01*
X121536Y167671D01*
Y167676D01*
X121541Y167687D01*
X121547Y167710D01*
X121558Y167743D01*
X121563Y167782D01*
X121569Y167837D01*
X121574Y167904D01*
Y167982D01*
Y168908D01*
Y168914D01*
Y168925D01*
Y168947D01*
Y168969D01*
Y169042D01*
X121569Y169119D01*
Y169208D01*
X121563Y169291D01*
X121558Y169363D01*
X121552Y169397D01*
X121547Y169419D01*
Y169424D01*
X121541Y169436D01*
X121536Y169469D01*
X121519Y169508D01*
X121491Y169541D01*
X121486Y169547D01*
X121464Y169558D01*
X121430Y169569D01*
X121380Y169574D01*
X121353D01*
X121330Y169569D01*
X121275Y169558D01*
X121208Y169536D01*
X121169Y169630D01*
X121896Y169924D01*
X122013D01*
Y169402D01*
X122019Y169408D01*
X122024Y169413D01*
X122057Y169447D01*
X122096Y169491D01*
X122152Y169541D01*
X122202Y169597D01*
X122252Y169641D01*
X122296Y169685D01*
X122324Y169708D01*
X122329Y169713D01*
X122346Y169724D01*
X122368Y169741D01*
X122401Y169763D01*
X122435Y169791D01*
X122479Y169813D01*
X122573Y169863D01*
X122579Y169869D01*
X122596Y169874D01*
X122623Y169885D01*
X122662Y169896D01*
X122701Y169907D01*
X122746Y169913D01*
X122795Y169924D01*
X122884D01*
X122929Y169919D01*
X122979Y169907D01*
X123040Y169891D01*
X123106Y169863D01*
X123173Y169830D01*
X123234Y169785D01*
X123240Y169780D01*
X123262Y169763D01*
X123289Y169730D01*
X123323Y169685D01*
X123362Y169635D01*
X123400Y169569D01*
X123428Y169491D01*
X123456Y169402D01*
X123461Y169408D01*
X123467Y169419D01*
X123484Y169430D01*
X123500Y169452D01*
X123550Y169508D01*
X123617Y169574D01*
X123689Y169641D01*
X123767Y169713D01*
X123844Y169774D01*
X123917Y169819D01*
X123928Y169824D01*
X123950Y169835D01*
X123989Y169852D01*
X124039Y169874D01*
X124094Y169891D01*
X124161Y169907D01*
X124233Y169919D01*
X124305Y169924D01*
X124338D01*
X124372Y169919D01*
D02*
G37*
G36*
X120165D02*
X120209Y169913D01*
X120265Y169902D01*
X120320Y169880D01*
X120381Y169857D01*
X120437Y169824D01*
X120442Y169819D01*
X120465Y169808D01*
X120487Y169780D01*
X120526Y169746D01*
X120559Y169702D01*
X120603Y169647D01*
X120642Y169574D01*
X120675Y169497D01*
X120681Y169491D01*
X120686Y169469D01*
X120698Y169430D01*
X120709Y169380D01*
X120720Y169314D01*
X120725Y169230D01*
X120736Y169136D01*
Y169019D01*
Y167982D01*
Y167970D01*
Y167943D01*
Y167904D01*
X120742Y167854D01*
X120753Y167748D01*
X120759Y167704D01*
X120770Y167665D01*
X120775Y167654D01*
X120792Y167632D01*
X120820Y167599D01*
X120864Y167565D01*
X120870D01*
X120881Y167560D01*
X120897Y167554D01*
X120920Y167549D01*
X120953Y167537D01*
X120992Y167532D01*
X121042Y167526D01*
X121097D01*
Y167432D01*
X119910D01*
Y167526D01*
X119982D01*
X120009Y167532D01*
X120043D01*
X120120Y167554D01*
X120165Y167565D01*
X120198Y167587D01*
X120204D01*
X120209Y167593D01*
X120231Y167621D01*
X120259Y167660D01*
X120287Y167721D01*
Y167732D01*
X120292Y167748D01*
Y167771D01*
Y167804D01*
X120298Y167848D01*
Y167909D01*
Y167982D01*
Y169014D01*
Y169019D01*
Y169025D01*
Y169064D01*
X120292Y169114D01*
X120287Y169175D01*
X120281Y169247D01*
X120270Y169314D01*
X120248Y169375D01*
X120226Y169430D01*
X120220Y169436D01*
X120204Y169458D01*
X120181Y169486D01*
X120143Y169519D01*
X120098Y169547D01*
X120043Y169574D01*
X119971Y169597D01*
X119893Y169602D01*
X119871D01*
X119843Y169597D01*
X119804Y169591D01*
X119765Y169586D01*
X119715Y169574D01*
X119665Y169552D01*
X119610Y169530D01*
X119604Y169524D01*
X119588Y169513D01*
X119554Y169497D01*
X119515Y169469D01*
X119465Y169436D01*
X119404Y169391D01*
X119338Y169336D01*
X119266Y169269D01*
Y169241D01*
X119277Y169130D01*
Y167982D01*
Y167970D01*
Y167943D01*
Y167898D01*
X119282Y167848D01*
Y167793D01*
X119288Y167743D01*
X119293Y167699D01*
X119299Y167665D01*
X119305Y167654D01*
X119321Y167632D01*
X119354Y167599D01*
X119404Y167565D01*
X119410D01*
X119421Y167560D01*
X119438Y167554D01*
X119465Y167549D01*
X119504Y167537D01*
X119549Y167532D01*
X119604Y167526D01*
X119665D01*
Y167432D01*
X118450D01*
Y167526D01*
X118516D01*
X118555Y167532D01*
X118644Y167543D01*
X118683Y167554D01*
X118716Y167571D01*
X118722D01*
X118727Y167582D01*
X118761Y167610D01*
X118794Y167654D01*
X118822Y167715D01*
X118827Y167726D01*
Y167743D01*
X118833Y167765D01*
Y167798D01*
X118838Y167848D01*
Y167904D01*
Y167982D01*
Y169014D01*
Y169019D01*
Y169025D01*
Y169042D01*
Y169064D01*
X118833Y169114D01*
X118827Y169180D01*
X118816Y169247D01*
X118799Y169319D01*
X118777Y169386D01*
X118749Y169441D01*
X118744Y169447D01*
X118727Y169469D01*
X118700Y169497D01*
X118666Y169530D01*
X118616Y169558D01*
X118561Y169586D01*
X118494Y169608D01*
X118422Y169613D01*
X118400D01*
X118372Y169608D01*
X118333Y169602D01*
X118294Y169597D01*
X118245Y169580D01*
X118194Y169563D01*
X118139Y169536D01*
X118128Y169530D01*
X118106Y169513D01*
X118067Y169491D01*
X118017Y169458D01*
X117961Y169419D01*
X117906Y169375D01*
X117856Y169325D01*
X117806Y169269D01*
Y167982D01*
Y167970D01*
Y167943D01*
Y167898D01*
X117812Y167848D01*
Y167798D01*
X117817Y167743D01*
X117823Y167699D01*
X117834Y167665D01*
Y167660D01*
X117839Y167654D01*
X117856Y167626D01*
X117889Y167593D01*
X117928Y167560D01*
X117934D01*
X117939Y167554D01*
X117961Y167549D01*
X117989Y167543D01*
X118023Y167537D01*
X118067Y167532D01*
X118128Y167526D01*
X118194D01*
Y167432D01*
X117001D01*
Y167526D01*
X117057D01*
X117090Y167532D01*
X117168Y167543D01*
X117201Y167549D01*
X117229Y167560D01*
X117234D01*
X117240Y167565D01*
X117268Y167587D01*
X117301Y167621D01*
X117329Y167671D01*
Y167676D01*
X117334Y167687D01*
X117340Y167710D01*
X117351Y167743D01*
X117357Y167782D01*
X117362Y167837D01*
X117368Y167904D01*
Y167982D01*
Y168908D01*
Y168914D01*
Y168925D01*
Y168947D01*
Y168969D01*
Y169042D01*
X117362Y169119D01*
Y169208D01*
X117357Y169291D01*
X117351Y169363D01*
X117345Y169397D01*
X117340Y169419D01*
Y169424D01*
X117334Y169436D01*
X117329Y169469D01*
X117312Y169508D01*
X117284Y169541D01*
X117279Y169547D01*
X117257Y169558D01*
X117223Y169569D01*
X117173Y169574D01*
X117146D01*
X117123Y169569D01*
X117068Y169558D01*
X117001Y169536D01*
X116962Y169630D01*
X117690Y169924D01*
X117806D01*
Y169402D01*
X117812Y169408D01*
X117817Y169413D01*
X117850Y169447D01*
X117889Y169491D01*
X117945Y169541D01*
X117995Y169597D01*
X118045Y169641D01*
X118089Y169685D01*
X118117Y169708D01*
X118122Y169713D01*
X118139Y169724D01*
X118161Y169741D01*
X118194Y169763D01*
X118228Y169791D01*
X118272Y169813D01*
X118367Y169863D01*
X118372Y169869D01*
X118389Y169874D01*
X118417Y169885D01*
X118455Y169896D01*
X118494Y169907D01*
X118539Y169913D01*
X118589Y169924D01*
X118677D01*
X118722Y169919D01*
X118772Y169907D01*
X118833Y169891D01*
X118899Y169863D01*
X118966Y169830D01*
X119027Y169785D01*
X119033Y169780D01*
X119055Y169763D01*
X119082Y169730D01*
X119116Y169685D01*
X119155Y169635D01*
X119193Y169569D01*
X119221Y169491D01*
X119249Y169402D01*
X119255Y169408D01*
X119260Y169419D01*
X119277Y169430D01*
X119293Y169452D01*
X119343Y169508D01*
X119410Y169574D01*
X119482Y169641D01*
X119560Y169713D01*
X119638Y169774D01*
X119710Y169819D01*
X119721Y169824D01*
X119743Y169835D01*
X119782Y169852D01*
X119832Y169874D01*
X119887Y169891D01*
X119954Y169907D01*
X120026Y169919D01*
X120098Y169924D01*
X120132D01*
X120165Y169919D01*
D02*
G37*
G36*
X115641Y171084D02*
X115675Y171078D01*
X115719Y171067D01*
X115819Y171040D01*
X115875Y171017D01*
X115936Y170984D01*
X115997Y170951D01*
X116058Y170912D01*
X116124Y170862D01*
X116185Y170807D01*
X116252Y170740D01*
X116313Y170668D01*
X116319Y170662D01*
X116330Y170645D01*
X116352Y170612D01*
X116380Y170573D01*
X116407Y170518D01*
X116441Y170457D01*
X116480Y170379D01*
X116518Y170296D01*
X116557Y170202D01*
X116596Y170096D01*
X116629Y169980D01*
X116657Y169852D01*
X116685Y169719D01*
X116707Y169574D01*
X116718Y169419D01*
X116724Y169258D01*
Y169253D01*
Y169230D01*
Y169197D01*
Y169153D01*
X116718Y169097D01*
X116713Y169036D01*
X116707Y168964D01*
X116702Y168892D01*
X116679Y168720D01*
X116646Y168542D01*
X116602Y168365D01*
X116541Y168192D01*
Y168187D01*
X116535Y168176D01*
X116524Y168154D01*
X116507Y168120D01*
X116491Y168087D01*
X116469Y168048D01*
X116419Y167954D01*
X116352Y167848D01*
X116274Y167743D01*
X116180Y167648D01*
X116130Y167604D01*
X116080Y167565D01*
X116074D01*
X116069Y167560D01*
X116052Y167549D01*
X116030Y167537D01*
X115980Y167504D01*
X115908Y167471D01*
X115825Y167432D01*
X115736Y167404D01*
X115641Y167382D01*
X115542Y167371D01*
X115519D01*
X115492Y167377D01*
X115458Y167382D01*
X115414Y167388D01*
X115364Y167404D01*
X115303Y167421D01*
X115242Y167449D01*
X115175Y167476D01*
X115109Y167515D01*
X115037Y167565D01*
X114964Y167626D01*
X114892Y167693D01*
X114820Y167771D01*
X114753Y167865D01*
X114687Y167970D01*
X114681Y167976D01*
X114676Y167993D01*
X114659Y168020D01*
X114643Y168059D01*
X114620Y168109D01*
X114598Y168170D01*
X114570Y168237D01*
X114548Y168315D01*
X114520Y168403D01*
X114493Y168498D01*
X114471Y168598D01*
X114448Y168709D01*
X114432Y168820D01*
X114415Y168942D01*
X114409Y169069D01*
X114404Y169202D01*
Y169208D01*
Y169230D01*
Y169264D01*
X114409Y169302D01*
Y169358D01*
X114415Y169419D01*
X114420Y169486D01*
X114426Y169563D01*
X114448Y169730D01*
X114482Y169907D01*
X114526Y170085D01*
X114587Y170257D01*
Y170263D01*
X114598Y170279D01*
X114604Y170301D01*
X114620Y170329D01*
X114637Y170368D01*
X114659Y170407D01*
X114720Y170507D01*
X114787Y170612D01*
X114876Y170723D01*
X114970Y170829D01*
X115081Y170917D01*
X115092Y170923D01*
X115120Y170945D01*
X115170Y170973D01*
X115231Y171006D01*
X115303Y171034D01*
X115386Y171062D01*
X115475Y171084D01*
X115569Y171089D01*
X115608D01*
X115641Y171084D01*
D02*
G37*
G36*
X113927Y170984D02*
X113910D01*
X113893Y170978D01*
X113871D01*
X113804Y170967D01*
X113727Y170951D01*
X113632Y170934D01*
X113538Y170906D01*
X113444Y170879D01*
X113355Y170840D01*
X113344Y170834D01*
X113316Y170823D01*
X113272Y170795D01*
X113216Y170762D01*
X113150Y170718D01*
X113077Y170662D01*
X113000Y170601D01*
X112917Y170523D01*
X112905Y170512D01*
X112883Y170485D01*
X112844Y170446D01*
X112794Y170385D01*
X112739Y170318D01*
X112678Y170235D01*
X112617Y170146D01*
X112561Y170052D01*
Y170046D01*
X112556Y170041D01*
X112550Y170024D01*
X112539Y170007D01*
X112511Y169952D01*
X112478Y169874D01*
X112445Y169785D01*
X112406Y169680D01*
X112367Y169563D01*
X112328Y169430D01*
X112334Y169436D01*
X112345Y169441D01*
X112367Y169452D01*
X112395Y169469D01*
X112428Y169491D01*
X112467Y169513D01*
X112511Y169536D01*
X112567Y169563D01*
X112678Y169608D01*
X112811Y169652D01*
X112944Y169680D01*
X113016Y169691D01*
X113122D01*
X113150Y169685D01*
X113183Y169680D01*
X113216Y169674D01*
X113305Y169652D01*
X113405Y169619D01*
X113510Y169563D01*
X113566Y169530D01*
X113621Y169491D01*
X113677Y169447D01*
X113727Y169391D01*
X113732Y169386D01*
X113738Y169380D01*
X113754Y169363D01*
X113771Y169336D01*
X113788Y169308D01*
X113816Y169275D01*
X113838Y169236D01*
X113865Y169186D01*
X113916Y169080D01*
X113954Y168947D01*
X113988Y168803D01*
X113993Y168720D01*
X113999Y168636D01*
Y168631D01*
Y168614D01*
Y168592D01*
X113993Y168559D01*
Y168520D01*
X113982Y168475D01*
X113977Y168420D01*
X113965Y168365D01*
X113932Y168237D01*
X113882Y168098D01*
X113849Y168032D01*
X113816Y167959D01*
X113771Y167887D01*
X113721Y167815D01*
X113716Y167809D01*
X113705Y167798D01*
X113688Y167776D01*
X113660Y167748D01*
X113627Y167710D01*
X113588Y167676D01*
X113544Y167632D01*
X113488Y167593D01*
X113433Y167554D01*
X113366Y167510D01*
X113294Y167476D01*
X113216Y167443D01*
X113133Y167410D01*
X113050Y167388D01*
X112955Y167377D01*
X112855Y167371D01*
X112822D01*
X112794Y167377D01*
X112761D01*
X112728Y167382D01*
X112639Y167399D01*
X112545Y167432D01*
X112439Y167471D01*
X112334Y167532D01*
X112284Y167565D01*
X112234Y167610D01*
X112228Y167615D01*
X112212Y167632D01*
X112189Y167660D01*
X112156Y167693D01*
X112117Y167743D01*
X112078Y167798D01*
X112029Y167865D01*
X111984Y167943D01*
X111940Y168026D01*
X111895Y168115D01*
X111851Y168220D01*
X111812Y168326D01*
X111779Y168442D01*
X111757Y168564D01*
X111740Y168698D01*
X111734Y168836D01*
Y168842D01*
Y168858D01*
Y168886D01*
X111740Y168920D01*
Y168964D01*
X111745Y169014D01*
X111751Y169069D01*
X111757Y169130D01*
X111779Y169275D01*
X111812Y169424D01*
X111862Y169591D01*
X111923Y169752D01*
Y169757D01*
X111934Y169774D01*
X111945Y169796D01*
X111962Y169824D01*
X111978Y169863D01*
X112001Y169907D01*
X112067Y170013D01*
X112145Y170129D01*
X112239Y170257D01*
X112345Y170390D01*
X112472Y170518D01*
X112478Y170523D01*
X112489Y170535D01*
X112506Y170551D01*
X112533Y170573D01*
X112567Y170601D01*
X112606Y170629D01*
X112695Y170701D01*
X112800Y170779D01*
X112917Y170851D01*
X113039Y170917D01*
X113161Y170973D01*
X113166D01*
X113177Y170978D01*
X113194Y170984D01*
X113216Y170990D01*
X113277Y171012D01*
X113361Y171034D01*
X113455Y171051D01*
X113555Y171073D01*
X113666Y171084D01*
X113771Y171089D01*
X113927D01*
Y170984D01*
D02*
G37*
G36*
X253828Y84003D02*
X253733D01*
Y84075D01*
X253728Y84103D01*
Y84136D01*
X253706Y84214D01*
X253695Y84259D01*
X253672Y84292D01*
Y84297D01*
X253667Y84303D01*
X253639Y84325D01*
X253600Y84353D01*
X253539Y84381D01*
X253528D01*
X253511Y84386D01*
X253489D01*
X253456D01*
X253412Y84392D01*
X253350D01*
X253278D01*
X252246D01*
X252240D01*
X252235D01*
X252196D01*
X252146Y84386D01*
X252085Y84381D01*
X252013Y84375D01*
X251946Y84364D01*
X251885Y84342D01*
X251830Y84320D01*
X251824Y84314D01*
X251802Y84297D01*
X251774Y84275D01*
X251741Y84236D01*
X251713Y84192D01*
X251685Y84136D01*
X251663Y84064D01*
X251658Y83987D01*
Y83964D01*
X251663Y83937D01*
X251669Y83898D01*
X251674Y83859D01*
X251685Y83809D01*
X251708Y83759D01*
X251730Y83704D01*
X251735Y83698D01*
X251747Y83681D01*
X251763Y83648D01*
X251791Y83609D01*
X251824Y83559D01*
X251869Y83498D01*
X251924Y83432D01*
X251991Y83359D01*
X252018D01*
X252129Y83371D01*
X253278D01*
X253289D01*
X253317D01*
X253362D01*
X253412Y83376D01*
X253467D01*
X253517Y83382D01*
X253561Y83387D01*
X253595Y83393D01*
X253606Y83398D01*
X253628Y83415D01*
X253661Y83448D01*
X253695Y83498D01*
Y83504D01*
X253700Y83515D01*
X253706Y83531D01*
X253711Y83559D01*
X253722Y83598D01*
X253728Y83643D01*
X253733Y83698D01*
Y83759D01*
X253828D01*
Y82544D01*
X253733D01*
Y82610D01*
X253728Y82649D01*
X253717Y82738D01*
X253706Y82777D01*
X253689Y82810D01*
Y82816D01*
X253678Y82821D01*
X253650Y82854D01*
X253606Y82888D01*
X253545Y82916D01*
X253534Y82921D01*
X253517D01*
X253495Y82927D01*
X253462D01*
X253412Y82932D01*
X253356D01*
X253278D01*
X252246D01*
X252240D01*
X252235D01*
X252218D01*
X252196D01*
X252146Y82927D01*
X252080Y82921D01*
X252013Y82910D01*
X251941Y82893D01*
X251874Y82871D01*
X251819Y82843D01*
X251813Y82838D01*
X251791Y82821D01*
X251763Y82793D01*
X251730Y82760D01*
X251702Y82710D01*
X251674Y82655D01*
X251652Y82588D01*
X251647Y82516D01*
Y82494D01*
X251652Y82466D01*
X251658Y82427D01*
X251663Y82388D01*
X251680Y82338D01*
X251696Y82288D01*
X251724Y82233D01*
X251730Y82222D01*
X251747Y82200D01*
X251769Y82161D01*
X251802Y82111D01*
X251841Y82055D01*
X251885Y82000D01*
X251935Y81950D01*
X251991Y81900D01*
X253278D01*
X253289D01*
X253317D01*
X253362D01*
X253412Y81905D01*
X253462D01*
X253517Y81911D01*
X253561Y81916D01*
X253595Y81928D01*
X253600D01*
X253606Y81933D01*
X253633Y81950D01*
X253667Y81983D01*
X253700Y82022D01*
Y82028D01*
X253706Y82033D01*
X253711Y82055D01*
X253717Y82083D01*
X253722Y82116D01*
X253728Y82161D01*
X253733Y82222D01*
Y82288D01*
X253828D01*
Y81095D01*
X253733D01*
Y81151D01*
X253728Y81184D01*
X253717Y81262D01*
X253711Y81295D01*
X253700Y81323D01*
Y81328D01*
X253695Y81334D01*
X253672Y81362D01*
X253639Y81395D01*
X253589Y81423D01*
X253584D01*
X253572Y81428D01*
X253550Y81434D01*
X253517Y81445D01*
X253478Y81450D01*
X253423Y81456D01*
X253356Y81461D01*
X253278D01*
X252351D01*
X252346D01*
X252335D01*
X252313D01*
X252290D01*
X252218D01*
X252140Y81456D01*
X252052D01*
X251969Y81450D01*
X251896Y81445D01*
X251863Y81439D01*
X251841Y81434D01*
X251835D01*
X251824Y81428D01*
X251791Y81423D01*
X251752Y81406D01*
X251719Y81378D01*
X251713Y81373D01*
X251702Y81350D01*
X251691Y81317D01*
X251685Y81267D01*
Y81239D01*
X251691Y81217D01*
X251702Y81162D01*
X251724Y81095D01*
X251630Y81056D01*
X251336Y81783D01*
Y81900D01*
X251857D01*
X251852Y81905D01*
X251846Y81911D01*
X251813Y81944D01*
X251769Y81983D01*
X251719Y82039D01*
X251663Y82089D01*
X251619Y82139D01*
X251574Y82183D01*
X251552Y82211D01*
X251547Y82216D01*
X251536Y82233D01*
X251519Y82255D01*
X251497Y82288D01*
X251469Y82322D01*
X251447Y82366D01*
X251397Y82460D01*
X251391Y82466D01*
X251386Y82483D01*
X251375Y82510D01*
X251363Y82549D01*
X251352Y82588D01*
X251347Y82632D01*
X251336Y82682D01*
Y82771D01*
X251341Y82816D01*
X251352Y82866D01*
X251369Y82927D01*
X251397Y82993D01*
X251430Y83060D01*
X251474Y83121D01*
X251480Y83126D01*
X251497Y83149D01*
X251530Y83176D01*
X251574Y83210D01*
X251624Y83249D01*
X251691Y83287D01*
X251769Y83315D01*
X251857Y83343D01*
X251852Y83348D01*
X251841Y83354D01*
X251830Y83371D01*
X251807Y83387D01*
X251752Y83437D01*
X251685Y83504D01*
X251619Y83576D01*
X251547Y83654D01*
X251486Y83731D01*
X251441Y83803D01*
X251436Y83815D01*
X251425Y83837D01*
X251408Y83876D01*
X251386Y83926D01*
X251369Y83981D01*
X251352Y84048D01*
X251341Y84120D01*
X251336Y84192D01*
Y84225D01*
X251341Y84259D01*
X251347Y84303D01*
X251358Y84359D01*
X251380Y84414D01*
X251402Y84475D01*
X251436Y84531D01*
X251441Y84536D01*
X251452Y84558D01*
X251480Y84580D01*
X251513Y84619D01*
X251558Y84653D01*
X251613Y84697D01*
X251685Y84736D01*
X251763Y84769D01*
X251769Y84775D01*
X251791Y84780D01*
X251830Y84791D01*
X251880Y84803D01*
X251946Y84814D01*
X252030Y84819D01*
X252124Y84830D01*
X252240D01*
X253278D01*
X253289D01*
X253317D01*
X253356D01*
X253406Y84836D01*
X253511Y84847D01*
X253556Y84852D01*
X253595Y84864D01*
X253606Y84869D01*
X253628Y84886D01*
X253661Y84913D01*
X253695Y84958D01*
Y84963D01*
X253700Y84974D01*
X253706Y84991D01*
X253711Y85013D01*
X253722Y85047D01*
X253728Y85085D01*
X253733Y85136D01*
Y85191D01*
X253828D01*
Y84003D01*
D02*
G37*
G36*
Y79796D02*
X253733D01*
Y79869D01*
X253728Y79896D01*
Y79930D01*
X253706Y80007D01*
X253695Y80052D01*
X253672Y80085D01*
Y80090D01*
X253667Y80096D01*
X253639Y80118D01*
X253600Y80146D01*
X253539Y80174D01*
X253528D01*
X253511Y80179D01*
X253489D01*
X253456D01*
X253412Y80185D01*
X253350D01*
X253278D01*
X252246D01*
X252240D01*
X252235D01*
X252196D01*
X252146Y80179D01*
X252085Y80174D01*
X252013Y80168D01*
X251946Y80157D01*
X251885Y80135D01*
X251830Y80113D01*
X251824Y80107D01*
X251802Y80090D01*
X251774Y80068D01*
X251741Y80029D01*
X251713Y79985D01*
X251685Y79930D01*
X251663Y79857D01*
X251658Y79780D01*
Y79757D01*
X251663Y79730D01*
X251669Y79691D01*
X251674Y79652D01*
X251685Y79602D01*
X251708Y79552D01*
X251730Y79497D01*
X251735Y79491D01*
X251747Y79475D01*
X251763Y79441D01*
X251791Y79402D01*
X251824Y79352D01*
X251869Y79291D01*
X251924Y79225D01*
X251991Y79153D01*
X252018D01*
X252129Y79164D01*
X253278D01*
X253289D01*
X253317D01*
X253362D01*
X253412Y79169D01*
X253467D01*
X253517Y79175D01*
X253561Y79180D01*
X253595Y79186D01*
X253606Y79191D01*
X253628Y79208D01*
X253661Y79241D01*
X253695Y79291D01*
Y79297D01*
X253700Y79308D01*
X253706Y79325D01*
X253711Y79352D01*
X253722Y79391D01*
X253728Y79436D01*
X253733Y79491D01*
Y79552D01*
X253828D01*
Y78337D01*
X253733D01*
Y78403D01*
X253728Y78442D01*
X253717Y78531D01*
X253706Y78570D01*
X253689Y78603D01*
Y78609D01*
X253678Y78614D01*
X253650Y78648D01*
X253606Y78681D01*
X253545Y78709D01*
X253534Y78714D01*
X253517D01*
X253495Y78720D01*
X253462D01*
X253412Y78725D01*
X253356D01*
X253278D01*
X252246D01*
X252240D01*
X252235D01*
X252218D01*
X252196D01*
X252146Y78720D01*
X252080Y78714D01*
X252013Y78703D01*
X251941Y78686D01*
X251874Y78664D01*
X251819Y78636D01*
X251813Y78631D01*
X251791Y78614D01*
X251763Y78587D01*
X251730Y78553D01*
X251702Y78503D01*
X251674Y78448D01*
X251652Y78381D01*
X251647Y78309D01*
Y78287D01*
X251652Y78259D01*
X251658Y78220D01*
X251663Y78181D01*
X251680Y78131D01*
X251696Y78081D01*
X251724Y78026D01*
X251730Y78015D01*
X251747Y77993D01*
X251769Y77954D01*
X251802Y77904D01*
X251841Y77848D01*
X251885Y77793D01*
X251935Y77743D01*
X251991Y77693D01*
X253278D01*
X253289D01*
X253317D01*
X253362D01*
X253412Y77698D01*
X253462D01*
X253517Y77704D01*
X253561Y77710D01*
X253595Y77721D01*
X253600D01*
X253606Y77726D01*
X253633Y77743D01*
X253667Y77776D01*
X253700Y77815D01*
Y77821D01*
X253706Y77826D01*
X253711Y77848D01*
X253717Y77876D01*
X253722Y77909D01*
X253728Y77954D01*
X253733Y78015D01*
Y78081D01*
X253828D01*
Y76888D01*
X253733D01*
Y76944D01*
X253728Y76977D01*
X253717Y77055D01*
X253711Y77088D01*
X253700Y77116D01*
Y77121D01*
X253695Y77127D01*
X253672Y77155D01*
X253639Y77188D01*
X253589Y77216D01*
X253584D01*
X253572Y77221D01*
X253550Y77227D01*
X253517Y77238D01*
X253478Y77243D01*
X253423Y77249D01*
X253356Y77254D01*
X253278D01*
X252351D01*
X252346D01*
X252335D01*
X252313D01*
X252290D01*
X252218D01*
X252140Y77249D01*
X252052D01*
X251969Y77243D01*
X251896Y77238D01*
X251863Y77232D01*
X251841Y77227D01*
X251835D01*
X251824Y77221D01*
X251791Y77216D01*
X251752Y77199D01*
X251719Y77171D01*
X251713Y77166D01*
X251702Y77144D01*
X251691Y77110D01*
X251685Y77060D01*
Y77033D01*
X251691Y77010D01*
X251702Y76955D01*
X251724Y76888D01*
X251630Y76849D01*
X251336Y77576D01*
Y77693D01*
X251857D01*
X251852Y77698D01*
X251846Y77704D01*
X251813Y77737D01*
X251769Y77776D01*
X251719Y77832D01*
X251663Y77882D01*
X251619Y77932D01*
X251574Y77976D01*
X251552Y78004D01*
X251547Y78009D01*
X251536Y78026D01*
X251519Y78048D01*
X251497Y78081D01*
X251469Y78115D01*
X251447Y78159D01*
X251397Y78254D01*
X251391Y78259D01*
X251386Y78276D01*
X251375Y78303D01*
X251363Y78342D01*
X251352Y78381D01*
X251347Y78426D01*
X251336Y78475D01*
Y78564D01*
X251341Y78609D01*
X251352Y78659D01*
X251369Y78720D01*
X251397Y78786D01*
X251430Y78853D01*
X251474Y78914D01*
X251480Y78920D01*
X251497Y78942D01*
X251530Y78969D01*
X251574Y79003D01*
X251624Y79042D01*
X251691Y79080D01*
X251769Y79108D01*
X251857Y79136D01*
X251852Y79141D01*
X251841Y79147D01*
X251830Y79164D01*
X251807Y79180D01*
X251752Y79230D01*
X251685Y79297D01*
X251619Y79369D01*
X251547Y79447D01*
X251486Y79524D01*
X251441Y79597D01*
X251436Y79608D01*
X251425Y79630D01*
X251408Y79669D01*
X251386Y79719D01*
X251369Y79774D01*
X251352Y79841D01*
X251341Y79913D01*
X251336Y79985D01*
Y80018D01*
X251341Y80052D01*
X251347Y80096D01*
X251358Y80152D01*
X251380Y80207D01*
X251402Y80268D01*
X251436Y80324D01*
X251441Y80329D01*
X251452Y80351D01*
X251480Y80374D01*
X251513Y80412D01*
X251558Y80446D01*
X251613Y80490D01*
X251685Y80529D01*
X251763Y80562D01*
X251769Y80568D01*
X251791Y80573D01*
X251830Y80585D01*
X251880Y80596D01*
X251946Y80607D01*
X252030Y80612D01*
X252124Y80623D01*
X252240D01*
X253278D01*
X253289D01*
X253317D01*
X253356D01*
X253406Y80629D01*
X253511Y80640D01*
X253556Y80646D01*
X253595Y80657D01*
X253606Y80662D01*
X253628Y80679D01*
X253661Y80707D01*
X253695Y80751D01*
Y80756D01*
X253700Y80768D01*
X253706Y80784D01*
X253711Y80806D01*
X253722Y80840D01*
X253728Y80879D01*
X253733Y80929D01*
Y80984D01*
X253828D01*
Y79796D01*
D02*
G37*
G36*
X252163Y76605D02*
X252224Y76600D01*
X252296Y76594D01*
X252368Y76588D01*
X252540Y76566D01*
X252718Y76533D01*
X252895Y76489D01*
X253067Y76428D01*
X253073D01*
X253084Y76422D01*
X253106Y76411D01*
X253140Y76394D01*
X253173Y76378D01*
X253212Y76355D01*
X253306Y76305D01*
X253412Y76239D01*
X253517Y76161D01*
X253611Y76067D01*
X253656Y76017D01*
X253695Y75967D01*
Y75961D01*
X253700Y75956D01*
X253711Y75939D01*
X253722Y75917D01*
X253756Y75867D01*
X253789Y75795D01*
X253828Y75712D01*
X253855Y75623D01*
X253878Y75528D01*
X253889Y75428D01*
Y75406D01*
X253883Y75379D01*
X253878Y75345D01*
X253872Y75301D01*
X253855Y75251D01*
X253839Y75190D01*
X253811Y75129D01*
X253783Y75062D01*
X253745Y74996D01*
X253695Y74923D01*
X253633Y74851D01*
X253567Y74779D01*
X253489Y74707D01*
X253395Y74640D01*
X253289Y74574D01*
X253284Y74568D01*
X253267Y74563D01*
X253239Y74546D01*
X253201Y74529D01*
X253151Y74507D01*
X253090Y74485D01*
X253023Y74457D01*
X252945Y74435D01*
X252856Y74407D01*
X252762Y74380D01*
X252662Y74357D01*
X252551Y74335D01*
X252440Y74318D01*
X252318Y74302D01*
X252190Y74296D01*
X252057Y74291D01*
X252052D01*
X252030D01*
X251996D01*
X251957Y74296D01*
X251902D01*
X251841Y74302D01*
X251774Y74307D01*
X251696Y74313D01*
X251530Y74335D01*
X251352Y74369D01*
X251175Y74413D01*
X251003Y74474D01*
X250997D01*
X250981Y74485D01*
X250958Y74491D01*
X250931Y74507D01*
X250892Y74524D01*
X250853Y74546D01*
X250753Y74607D01*
X250648Y74674D01*
X250537Y74762D01*
X250431Y74857D01*
X250342Y74968D01*
X250337Y74979D01*
X250315Y75007D01*
X250287Y75057D01*
X250254Y75118D01*
X250226Y75190D01*
X250198Y75273D01*
X250176Y75362D01*
X250170Y75456D01*
Y75495D01*
X250176Y75528D01*
X250181Y75562D01*
X250192Y75606D01*
X250220Y75706D01*
X250242Y75761D01*
X250276Y75823D01*
X250309Y75884D01*
X250348Y75945D01*
X250398Y76011D01*
X250453Y76072D01*
X250520Y76139D01*
X250592Y76200D01*
X250598Y76205D01*
X250614Y76217D01*
X250648Y76239D01*
X250687Y76267D01*
X250742Y76294D01*
X250803Y76328D01*
X250881Y76367D01*
X250964Y76405D01*
X251058Y76444D01*
X251164Y76483D01*
X251280Y76516D01*
X251408Y76544D01*
X251541Y76572D01*
X251685Y76594D01*
X251841Y76605D01*
X252002Y76611D01*
X252007D01*
X252030D01*
X252063D01*
X252107D01*
X252163Y76605D01*
D02*
G37*
G36*
X252884Y73425D02*
X253828D01*
Y72987D01*
X252884D01*
Y71471D01*
X252546D01*
X250170Y73131D01*
Y73425D01*
X252507D01*
Y73908D01*
X252884D01*
Y73425D01*
D02*
G37*
%LPC*%
G36*
X115569Y170917D02*
X115536D01*
X115503Y170906D01*
X115458Y170895D01*
X115408Y170879D01*
X115358Y170845D01*
X115303Y170807D01*
X115247Y170751D01*
X115242Y170740D01*
X115214Y170712D01*
X115181Y170657D01*
X115142Y170584D01*
X115120Y170540D01*
X115098Y170490D01*
X115075Y170429D01*
X115053Y170368D01*
X115037Y170301D01*
X115014Y170229D01*
X115003Y170146D01*
X114987Y170063D01*
Y170057D01*
Y170041D01*
X114981Y170018D01*
X114976Y169980D01*
X114970Y169941D01*
X114964Y169891D01*
X114959Y169835D01*
X114953Y169769D01*
X114942Y169630D01*
X114931Y169474D01*
X114926Y169308D01*
X114920Y169136D01*
Y169130D01*
Y169103D01*
Y169064D01*
X114926Y169014D01*
Y168953D01*
X114931Y168875D01*
X114937Y168797D01*
X114942Y168709D01*
X114964Y168514D01*
X114998Y168315D01*
X115042Y168115D01*
X115070Y168015D01*
X115103Y167926D01*
Y167920D01*
X115109Y167909D01*
X115120Y167893D01*
X115131Y167865D01*
X115164Y167804D01*
X115214Y167732D01*
X115281Y167660D01*
X115358Y167599D01*
X115403Y167571D01*
X115447Y167554D01*
X115497Y167543D01*
X115553Y167537D01*
X115580D01*
X115608Y167543D01*
X115641Y167554D01*
X115686Y167571D01*
X115736Y167593D01*
X115791Y167621D01*
X115847Y167665D01*
X115852Y167671D01*
X115875Y167687D01*
X115902Y167721D01*
X115936Y167765D01*
X115974Y167826D01*
X116013Y167898D01*
X116052Y167987D01*
X116086Y168093D01*
Y168098D01*
X116091Y168115D01*
X116097Y168142D01*
X116102Y168176D01*
X116113Y168226D01*
X116124Y168281D01*
X116136Y168348D01*
X116147Y168426D01*
X116158Y168509D01*
X116169Y168603D01*
X116180Y168709D01*
X116191Y168825D01*
X116197Y168947D01*
X116202Y169080D01*
X116208Y169225D01*
Y169375D01*
Y169380D01*
Y169402D01*
Y169436D01*
Y169474D01*
X116202Y169530D01*
Y169591D01*
X116197Y169658D01*
X116191Y169730D01*
X116174Y169891D01*
X116152Y170063D01*
X116124Y170235D01*
X116080Y170396D01*
Y170401D01*
X116074Y170407D01*
X116069Y170423D01*
X116063Y170446D01*
X116041Y170501D01*
X116013Y170562D01*
X115974Y170634D01*
X115930Y170707D01*
X115886Y170773D01*
X115830Y170829D01*
X115825Y170834D01*
X115808Y170845D01*
X115786Y170856D01*
X115758Y170873D01*
X115719Y170890D01*
X115675Y170906D01*
X115625Y170912D01*
X115569Y170917D01*
D02*
G37*
G36*
X112833Y169463D02*
X112794D01*
X112767Y169458D01*
X112700Y169447D01*
X112617Y169419D01*
X112611D01*
X112595Y169408D01*
X112572Y169397D01*
X112533Y169380D01*
X112489Y169352D01*
X112428Y169325D01*
X112362Y169286D01*
X112284Y169236D01*
Y169230D01*
Y169219D01*
X112278Y169202D01*
Y169175D01*
X112267Y169114D01*
X112262Y169030D01*
X112250Y168942D01*
X112239Y168847D01*
X112234Y168753D01*
Y168664D01*
Y168653D01*
Y168620D01*
X112239Y168570D01*
X112245Y168498D01*
X112256Y168414D01*
X112273Y168320D01*
X112295Y168220D01*
X112323Y168109D01*
Y168104D01*
X112328Y168098D01*
X112334Y168081D01*
X112339Y168059D01*
X112362Y168009D01*
X112395Y167943D01*
X112434Y167865D01*
X112484Y167787D01*
X112539Y167715D01*
X112606Y167643D01*
X112611Y167637D01*
X112628Y167626D01*
X112656Y167604D01*
X112695Y167582D01*
X112744Y167560D01*
X112800Y167537D01*
X112861Y167526D01*
X112933Y167521D01*
X112944D01*
X112972Y167526D01*
X113016Y167532D01*
X113072Y167549D01*
X113133Y167571D01*
X113205Y167610D01*
X113272Y167660D01*
X113344Y167732D01*
X113349Y167743D01*
X113372Y167771D01*
X113399Y167821D01*
X113438Y167893D01*
X113471Y167982D01*
X113499Y168087D01*
X113521Y168209D01*
X113527Y168353D01*
Y168359D01*
Y168376D01*
Y168398D01*
Y168431D01*
X113521Y168470D01*
X113516Y168514D01*
X113505Y168620D01*
X113483Y168742D01*
X113449Y168869D01*
X113405Y169003D01*
X113344Y169130D01*
Y169136D01*
X113338Y169147D01*
X113327Y169164D01*
X113311Y169180D01*
X113272Y169236D01*
X113216Y169297D01*
X113144Y169358D01*
X113055Y169413D01*
X113005Y169430D01*
X112950Y169447D01*
X112894Y169458D01*
X112833Y169463D01*
D02*
G37*
G36*
X252035Y76095D02*
X251885D01*
X251880D01*
X251857D01*
X251824D01*
X251785D01*
X251730Y76089D01*
X251669D01*
X251602Y76083D01*
X251530Y76078D01*
X251369Y76061D01*
X251197Y76039D01*
X251025Y76011D01*
X250864Y75967D01*
X250858D01*
X250853Y75961D01*
X250836Y75956D01*
X250814Y75950D01*
X250759Y75928D01*
X250698Y75900D01*
X250625Y75861D01*
X250553Y75817D01*
X250487Y75773D01*
X250431Y75717D01*
X250426Y75712D01*
X250414Y75695D01*
X250403Y75673D01*
X250387Y75645D01*
X250370Y75606D01*
X250354Y75562D01*
X250348Y75512D01*
X250342Y75456D01*
Y75423D01*
X250354Y75390D01*
X250365Y75345D01*
X250381Y75295D01*
X250414Y75245D01*
X250453Y75190D01*
X250509Y75134D01*
X250520Y75129D01*
X250548Y75101D01*
X250603Y75068D01*
X250675Y75029D01*
X250720Y75007D01*
X250770Y74985D01*
X250831Y74962D01*
X250892Y74940D01*
X250958Y74923D01*
X251030Y74901D01*
X251114Y74890D01*
X251197Y74874D01*
X251203D01*
X251219D01*
X251241Y74868D01*
X251280Y74862D01*
X251319Y74857D01*
X251369Y74851D01*
X251425Y74846D01*
X251491Y74840D01*
X251630Y74829D01*
X251785Y74818D01*
X251952Y74813D01*
X252124Y74807D01*
X252129D01*
X252157D01*
X252196D01*
X252246Y74813D01*
X252307D01*
X252385Y74818D01*
X252462Y74824D01*
X252551Y74829D01*
X252746Y74851D01*
X252945Y74885D01*
X253145Y74929D01*
X253245Y74957D01*
X253334Y74990D01*
X253339D01*
X253350Y74996D01*
X253367Y75007D01*
X253395Y75018D01*
X253456Y75051D01*
X253528Y75101D01*
X253600Y75168D01*
X253661Y75245D01*
X253689Y75290D01*
X253706Y75334D01*
X253717Y75384D01*
X253722Y75440D01*
Y75467D01*
X253717Y75495D01*
X253706Y75528D01*
X253689Y75573D01*
X253667Y75623D01*
X253639Y75678D01*
X253595Y75734D01*
X253589Y75739D01*
X253572Y75761D01*
X253539Y75789D01*
X253495Y75823D01*
X253434Y75861D01*
X253362Y75900D01*
X253273Y75939D01*
X253167Y75972D01*
X253162D01*
X253145Y75978D01*
X253117Y75984D01*
X253084Y75989D01*
X253034Y76000D01*
X252979Y76011D01*
X252912Y76022D01*
X252834Y76034D01*
X252751Y76045D01*
X252657Y76056D01*
X252551Y76067D01*
X252435Y76078D01*
X252313Y76083D01*
X252179Y76089D01*
X252035Y76095D01*
D02*
G37*
G36*
X252507Y72987D02*
X250731D01*
X252507Y71727D01*
Y72987D01*
D02*
G37*
%LPD*%
D12*
X236629Y168291D02*
Y170291D01*
X409Y168291D02*
Y170291D01*
X230629Y167291D02*
X236629Y169291D01*
X230629Y171291D02*
X236629Y169291D01*
X409D02*
X6409Y167291D01*
X409Y169291D02*
X6409Y171291D01*
X126304Y169291D02*
X236629D01*
X409D02*
X110734D01*
X250969Y157071D02*
X252969D01*
X250969Y-409D02*
X252969D01*
X251969Y157071D02*
X253969Y151071D01*
X249969D02*
X251969Y157071D01*
Y-409D02*
X253969Y5591D01*
X249969D02*
X251969Y-409D01*
Y86191D02*
Y157071D01*
Y-409D02*
Y70471D01*
M02*
