M48
;Layer_Color=9474304
;FILE_FORMAT=2:5
INCH,LZ
;TYPE=PLATED
T1F00S00C0.00787
T2F00S00C0.01181
T3F00S00C0.12598
%
T01
X0143701Y0027559
Y0031496
X0147638
X0147638Y0027559
X0151575
Y0031496
Y0035433
Y003937
Y0043307
Y0047244
Y0051181
X0147638
X0143701
Y0047244
X0147638
Y0043307
Y003937
X0143701
Y0043307
Y0035433
X0147638
X0155512
Y003937
Y0043307
Y0047244
Y0051181
X0159449
Y0047244
X0163386
Y0043307
Y003937
Y0035433
Y0031496
Y0027559
X0159449
Y0031496
Y0035433
Y003937
Y0043307
X0167323Y0043307
Y0047244
Y0051181
X0163386
Y0055118
Y0059055
Y0062992
X0167323
Y0059055
Y0055118
X017126
X0175197Y0055118
Y0059055
Y0062992
X017126Y0062992
Y0059055
Y0051181
Y0047244
Y0043307
X0175197
Y0047244
Y0051181
Y003937
Y0035433
Y0031496
Y0027559
X017126
Y0031496
X0167323
Y0027559
Y0035433
Y003937
X017126
Y0035433
X0155512Y0031496
Y0027559
Y0055118
Y0059055
Y0062992
X0151575
X0147638
X0143701
Y0059055
X0147638
X0151575
Y0055118
X0147638
X0143701
X0159449
Y0059055
Y0062992
X0139Y00921
X01356Y0089
X01364Y01082
X01209Y00962
X01146Y00738
X0068898Y0110236
X0064961
X0061024
X0057087
X005315
Y0114173
X0057087
X0061024
X0064961
X0068898
Y011811
X0064961
X0061024
X0057087
X005315
X0037402Y0084646
X00285Y0084388
T02
X0011811Y0011811
X0015748
X0019685
X0023622
X0027559
X0025591Y0015748
X0021654
X0017717
X001378
X0011811Y0019685
X0015748
X0019685
X0023622
X0027559
X0025591Y0047244
X0023622Y0051181
X0027559
X0025591Y0055118
X0021654
X0017717
X001378
X0011811Y0059055
X0015748
X0019685
X0023622
X0027559
X0025591Y0062992
X0021654
X0017717
X001378
X0011811Y0051181
X0015748
X0019685
X001378Y0047244
X0029528
X0031496Y0043307
X0035433
X0037402Y0047244
X0041339
X0043307Y0051181
X0047244
X0051181
X005315Y0055118
X0057087
X0061024
X0064961
X0068898
X0072835
X0076772
X0080709
X0084646
X0088583
X009252
X0096457
X0100394
X0104331
X0102363Y0059055
X0106299
X0104331Y0062992
X0102363Y0051181
X0106299
X0104331Y0047244
X0100394
X0096457
X0094489Y0043307
X0098426
X0102363
X0106299
X0110237
X0108268Y003937
X0104331
X0100394
X0096457
X009252
X0090552Y0043307
X0086615
X0082677
X007874
X0074803
X0070866
X0066929
X0062992
X0059055
X0055118
X0051181
X0047244
X0043307
X0045276Y003937
X0049213
X005315
Y0047244
X0049213
Y0055118
X0045276
X0041339
X003937Y0059055
X0043307
X0047244
X0051181
X0055118
X0059055
X0062992
X0066929
X0070866
X0068898Y0062992
X0064961
X0061024
X0057087
X005315
X0049213
X0045276
X0041339
X0033465
X0031496Y0059055
X0035433
X0033465Y0055118
X0035433Y0051181
X0037402Y003937
X0033465
X0035433Y0035433
X003937
X0043307
X0045276Y0031496
X0049213
X005315
X0057087
X0061024
X0064961
X0068898
X0072835
X0076772
X0080709
X0084646
X0088583
X009252
X0096457
X0100394
X0104331
X0108268
X0112205
X0116142
X0120079
X0124016
X0127953
X0125985Y0027559
X0122048
X0118111
X0114173
X0110237
X0106299
X0102363
X0098426
X0094489
X0090552
X0086615
X0082677
X007874
X0074803
X0070866
X0072835Y0023622
X0076772
X0080709
X0084646
X0088583
X009252
X0096457
X0100394
X0104331
X0108268
X0112205
X0116142
X0120079
X0124016
X0127953
X0125985Y0019685
X0122048
X0118111
X0114173
X0110237
X0106299
X0102363
X0098426
X0094489
X0090552
X0086615
X0082677
X007874
X0074803
X0070866
X0072835Y0015748
X0076772
X0080709
X0084646
X0088583
X009252
X0096457
X0100394
X0104331
X0108268
X0112205
X0116142
X0120079
X0124016
X0127953
X0125985Y0011811
X0122048
X0118111
X0114173
X0110237
Y0035433
X0106299
X0102363
X0098426
X0094489
X0098426Y0051181
X0086615Y0059055
Y0011811
X0082677
X007874
X0074803
X0070866
X0068898Y0015748
Y0023622
X0041339
X0037402
X0033465
X0029528
X0031496Y0019685
X0035433
X003937
X0043307
X0041339Y0015748
X0037402
X0033465
X0029528
X0031496Y0011811
X0035433
X003937
Y0027559
X0035433
X0037402Y0031496
X0041339
X0033465
X0143701Y0019685
X0147638
X0151575
X0155512
X0159449
X0163386
X0167323
X017126
X0175197
X0179134
X0183071
X0181103Y0023622
X0183071Y0027559
X0181103Y0031496
X0183071Y0035433
X0181103Y003937
X0183071Y0043307
X0181103Y0047244
X0183071Y0051181
X0181103Y0055118
X0183071Y0059055
X0181103Y0062992
Y0015748
X0177166
X0173229
X0169292
X0165355
X0161418
X0157481
X0153544
X0149607
X014567
X0141733
X0143701Y0011811
X0147638
X0151575
X0155512
X0159449
X0163386
X0167323
X017126
X0175197
X0179134
X0183071
X0181103Y0007874
X0177166
X0173229
X0169292
X0165355
X0161418
X0157481
X0153544
X0149607
X014567
X0141733
X018504
X0188977
X0192914
X0196851
X0200788
X0204725
X0208662
X0212599
X0216536
X0220473
X022441
X0228347
X0232284
X0230315Y0011811
X0226378
X0222441
X0218504
X0214567
X021063
X0206693
X0202756
X0198819
X0194882
X0190945
X0187008
X018504Y0015748
X0188977
X0192914
X0196851
X0200788
X0204725
X0208662
X0212599
X0216536
X0220473
X022441
X0228347
X0232284
X0230315Y0019685
X0226378
X0222441
X0218504
X0214567
X021063
X0206693
X0202756
X0198819
X0194882
X0190945
X0187008
X018504Y0023622
X0188977
X0192914
X0196851
X0194882Y0027559
X0190945
X0187008
X018504Y0031496
X0188977
X0192914
X0194882Y0035433
X0190945
X0187008
X018504Y003937
X0188977
X0192914
X0194882Y0043307
X0198819
X0196851Y0047244
X0200788
X0202756Y0051181
X0206693
X021063
X0214567
X0218504
X0222441
X0226378
X0230315
X0228347Y0055118
X0232284
X0230315Y0059055
X0226378
X0222441
X0218504
X0214567
X021063
X0206693
X0202756
X0198819
X0194882
X0190945
X0187008
X018504Y0062992
X0188977
X0192914
X0196851
X0200788
X0204725
X0208662
X0212599
X0216536
X0220473
X022441
X0228347
X0232284
Y0047244
X0228347
X022441
X0220473
X0216536
Y0055118
X0220473
X022441
X0212599
X0208662
X0204725
X0200788
X0196851
X0192914
X0188977
X018504
X0187008Y0051181
X0190945
X0194882
X0198819
X0192914Y0047244
X0188977
X018504
X0187008Y0043307
X0190945
X0222441
X0226378
X0230315
X0228347Y003937
X0232284
X0230315Y0035433
X0226378
X022441Y003937
Y0031496
X0228347
X0232284
X0230315Y0027559
X0226378
X0222441
X0220473Y0023622
X022441
X0228347
X0232284
X0230315Y0066929
X0226378
X0222441
X0218504
X0214567
X021063
X0206693
X0202756
X0198819
X0194882
X0190945
X0187008
X018504Y0070866
X0188977
X0192914
X0196851
X0200788
X0204725
X0208662
X0212599
X0216536
X0220473
X022441
X0228347
X0232284
X0230315Y0074803
X0226378
X0222441
X0218504
X0214567
X021063
X0206693
X0202756
X0198819
X0194882
X0190945
X0187008
Y0086614
X0190945
X0194882
X0198819
X0202756
X0206693
X021063
X0214567
X0218504
X0222441
X0226378
X0230315
X0228347Y0090551
X022441
X0220473
X0216536
X0212599
X0208662
X0204725
X0200788
X0196851
X0192914
X0188977
X018504
X0190945Y0094488
X0194882
X0198819
X0202756
X0206693
X021063
X0214567
X0218504
X0222441
X0226378
X0230315
X0228347Y0098425
X022441
X0220473
X0216536
X0212599
X0208662
X0204725
X0200788
X0196851
X0192914
X0181103Y0090551
X0177166
X0173229
X0169292
X0165355
X0161418
X0157481
X0153544
X0149607
X0151575Y0094488
X0149607Y0098425
X0151575Y0086614
X0155512
X0159449
X0163386
X0167323
X017126
X0175197
X0179134
X0183071
Y0074803
X0179134
X0175197
X017126
X0167323
X0163386
X0159449
X0155512
X0151575
X0147638
X0143701
X0141733Y0070866
X014567
X0149607
X0153544
X0157481
X0161418
X0165355
X0169292
X0173229
X0177166
X0181103
X0183071Y0066929
T03
X0019685Y00343
X02097
Y011811
X0019685
M30
