G04*
G04 #@! TF.GenerationSoftware,Altium Limited,Altium Designer,20.0.2 (26)*
G04*
G04 Layer_Color=8421504*
%FSLAX25Y25*%
%MOIN*%
G70*
G01*
G75*
%ADD15R,0.03937X0.03543*%
%ADD16R,0.03543X0.03937*%
%ADD17R,0.36614X0.40945*%
%ADD18R,0.17323X0.03740*%
%ADD19R,0.05118X0.02362*%
%ADD20R,0.12402X0.07717*%
%ADD21R,0.03347X0.02756*%
G04:AMPARAMS|DCode=22|XSize=33.47mil|YSize=27.56mil|CornerRadius=0mil|HoleSize=0mil|Usage=FLASHONLY|Rotation=0.000|XOffset=0mil|YOffset=0mil|HoleType=Round|Shape=Octagon|*
%AMOCTAGOND22*
4,1,8,0.01673,-0.00689,0.01673,0.00689,0.00984,0.01378,-0.00984,0.01378,-0.01673,0.00689,-0.01673,-0.00689,-0.00984,-0.01378,0.00984,-0.01378,0.01673,-0.00689,0.0*
%
%ADD22OCTAGOND22*%

%ADD23R,0.20315X0.14961*%
G04:AMPARAMS|DCode=24|XSize=62.99mil|YSize=56.69mil|CornerRadius=7.09mil|HoleSize=0mil|Usage=FLASHONLY|Rotation=90.000|XOffset=0mil|YOffset=0mil|HoleType=Round|Shape=RoundedRectangle|*
%AMROUNDEDRECTD24*
21,1,0.06299,0.04252,0,0,90.0*
21,1,0.04882,0.05669,0,0,90.0*
1,1,0.01417,0.02126,0.02441*
1,1,0.01417,0.02126,-0.02441*
1,1,0.01417,-0.02126,-0.02441*
1,1,0.01417,-0.02126,0.02441*
%
%ADD24ROUNDEDRECTD24*%
%ADD25R,0.10433X0.05118*%
%ADD26R,0.10630X0.04528*%
D15*
X19685Y73622D02*
D03*
Y79921D02*
D03*
X45276Y73622D02*
D03*
Y79921D02*
D03*
X134800Y99250D02*
D03*
Y92950D02*
D03*
X185039Y103937D02*
D03*
Y97638D02*
D03*
X115000Y84250D02*
D03*
Y77950D02*
D03*
D16*
X131405Y106649D02*
D03*
X125106D02*
D03*
X112606D02*
D03*
X118905D02*
D03*
X121350Y84000D02*
D03*
X127650D02*
D03*
D17*
X160400Y45700D02*
D03*
D18*
X121227Y35700D02*
D03*
Y55700D02*
D03*
D19*
X127176Y91909D02*
D03*
Y95649D02*
D03*
Y99389D02*
D03*
X117334D02*
D03*
Y91909D02*
D03*
D20*
X62992Y96260D02*
D03*
Y76968D02*
D03*
D21*
X28500Y74606D02*
D03*
X37402D02*
D03*
D22*
X28500Y80709D02*
D03*
X37402D02*
D03*
D23*
X61102Y113917D02*
D03*
D24*
X43307Y109724D02*
D03*
Y118110D02*
D03*
D25*
X159449Y98425D02*
D03*
Y109449D02*
D03*
X94488Y61516D02*
D03*
Y72539D02*
D03*
D26*
X173967Y109941D02*
D03*
Y98130D02*
D03*
X78740Y72835D02*
D03*
Y61024D02*
D03*
M02*
