G04*
G04 #@! TF.GenerationSoftware,Altium Limited,Altium Designer,20.0.2 (26)*
G04*
G04 Layer_Physical_Order=1*
G04 Layer_Color=255*
%FSLAX25Y25*%
%MOIN*%
G70*
G01*
G75*
%ADD12C,0.01000*%
%ADD13C,0.00787*%
%ADD15R,0.03937X0.03543*%
%ADD16R,0.03543X0.03937*%
%ADD17R,0.36614X0.40945*%
%ADD18R,0.17323X0.03740*%
%ADD19R,0.05118X0.02362*%
%ADD20R,0.12402X0.07717*%
%ADD21R,0.03347X0.02756*%
G04:AMPARAMS|DCode=22|XSize=33.47mil|YSize=27.56mil|CornerRadius=0mil|HoleSize=0mil|Usage=FLASHONLY|Rotation=0.000|XOffset=0mil|YOffset=0mil|HoleType=Round|Shape=Octagon|*
%AMOCTAGOND22*
4,1,8,0.01673,-0.00689,0.01673,0.00689,0.00984,0.01378,-0.00984,0.01378,-0.01673,0.00689,-0.01673,-0.00689,-0.00984,-0.01378,0.00984,-0.01378,0.01673,-0.00689,0.0*
%
%ADD22OCTAGOND22*%

%ADD23R,0.20315X0.14961*%
G04:AMPARAMS|DCode=24|XSize=62.99mil|YSize=56.69mil|CornerRadius=7.09mil|HoleSize=0mil|Usage=FLASHONLY|Rotation=90.000|XOffset=0mil|YOffset=0mil|HoleType=Round|Shape=RoundedRectangle|*
%AMROUNDEDRECTD24*
21,1,0.06299,0.04252,0,0,90.0*
21,1,0.04882,0.05669,0,0,90.0*
1,1,0.01417,0.02126,0.02441*
1,1,0.01417,0.02126,-0.02441*
1,1,0.01417,-0.02126,-0.02441*
1,1,0.01417,-0.02126,0.02441*
%
%ADD24ROUNDEDRECTD24*%
%ADD25R,0.10433X0.05118*%
%ADD26R,0.10630X0.04528*%
%ADD41C,0.00800*%
%ADD42C,0.01200*%
%ADD43C,0.02500*%
%ADD44C,0.01968*%
%ADD45C,0.23622*%
%ADD46C,0.02362*%
%ADD47C,0.01575*%
G36*
X232283Y149606D02*
Y106299D01*
X228346Y102362D01*
X149606D01*
X145669Y106299D01*
Y114173D01*
X141732Y118110D01*
X122047D01*
X114173Y110236D01*
X114173Y104331D01*
X112205Y102362D01*
Y96457D01*
X114173Y94488D01*
X120079D01*
X122047Y92520D01*
Y88583D01*
X124016Y86614D01*
Y82677D01*
X122047Y80709D01*
X117968D01*
Y80722D01*
X112031D01*
Y80535D01*
X110236Y78740D01*
X110236Y70866D01*
X106299Y66929D01*
X55118D01*
X51181Y70866D01*
X51181Y82677D01*
X55118Y86614D01*
X82677D01*
X86614Y90551D01*
X90551Y94488D01*
Y149606D01*
X94488Y153543D01*
X228346D01*
X232283Y149606D01*
D02*
G37*
G36*
X229331Y101378D02*
X232283Y98425D01*
X232283Y86614D01*
X228346Y82677D01*
X149606Y82677D01*
X147638Y84646D01*
Y98425D01*
X150555Y101343D01*
X182071D01*
Y101165D01*
X188008D01*
Y101343D01*
X228346D01*
X228524Y101378D01*
X229331D01*
D02*
G37*
G36*
X47244Y149606D02*
Y102362D01*
X39696Y94814D01*
X25591D01*
X24713Y94639D01*
X24487Y94488D01*
X7874D01*
X3937Y98425D01*
Y149606D01*
X7874Y153543D01*
X43307D01*
X47244Y149606D01*
D02*
G37*
G36*
X86614Y149606D02*
X86614Y94488D01*
X82677Y90551D01*
X55118D01*
X51181Y94488D01*
Y149606D01*
X55118Y153543D01*
X82677D01*
X86614Y149606D01*
D02*
G37*
G36*
X234252Y74803D02*
Y5906D01*
X230315Y1969D01*
X137795D01*
X133858Y5906D01*
Y72835D01*
X139764Y78740D01*
X230315D01*
X234252Y74803D01*
D02*
G37*
G36*
X108268Y62992D02*
Y47244D01*
X112205Y43307D01*
X127953D01*
Y43307D01*
X129921Y41339D01*
Y5906D01*
X125984Y1969D01*
X9843D01*
X3937Y7874D01*
Y61024D01*
X7874Y64961D01*
X106299D01*
X108268Y62992D01*
D02*
G37*
%LPC*%
G36*
X46580Y28495D02*
X45652Y28311D01*
X44865Y27785D01*
X44340Y26999D01*
X44155Y26071D01*
X44340Y25143D01*
X44408Y25041D01*
X44409Y25034D01*
X45705Y22279D01*
X45530Y20953D01*
X45564Y20697D01*
X45164Y20045D01*
X44439Y18296D01*
X43997Y16455D01*
X43849Y14568D01*
X43997Y12680D01*
X44439Y10839D01*
X45164Y9090D01*
X46153Y7476D01*
X46767Y6757D01*
X46779Y6739D01*
X46774Y6734D01*
X46835Y6643D01*
X46847Y6634D01*
X46867Y6607D01*
X47328Y6299D01*
X47872Y6191D01*
X48414Y6299D01*
X48404Y6324D01*
X49175Y6643D01*
X49597Y6385D01*
X49844Y5987D01*
D01*
X49998Y5213D01*
X50437Y4557D01*
X51093Y4118D01*
X51867Y3964D01*
X52484Y4087D01*
X53076Y3969D01*
X53664Y4086D01*
X54277Y3964D01*
X55051Y4118D01*
X55707Y4557D01*
X55718Y4572D01*
X55903Y4557D01*
X55967Y4562D01*
X56398Y4274D01*
X57172Y4120D01*
X57785Y4242D01*
X58373Y4125D01*
X58965Y4243D01*
X59582Y4120D01*
X60356Y4274D01*
X61012Y4713D01*
X61451Y5369D01*
X61574Y5991D01*
X62419Y6509D01*
X62865Y6324D01*
X62855Y6299D01*
X63398Y6191D01*
X63941Y6299D01*
X64402Y6607D01*
X64422Y6634D01*
X64435Y6643D01*
X64496Y6734D01*
X64490Y6739D01*
X64502Y6757D01*
X65116Y7476D01*
X66106Y9090D01*
X66830Y10839D01*
X67272Y12680D01*
X67421Y14568D01*
X67272Y16455D01*
X66830Y18296D01*
X66106Y20045D01*
X65706Y20697D01*
X65739Y20953D01*
X65575Y22200D01*
X66890Y24996D01*
X66892Y25004D01*
X66960Y25106D01*
X67145Y26033D01*
X66960Y26961D01*
X66435Y27748D01*
X65648Y28273D01*
X64720Y28458D01*
X64116Y28338D01*
X63792Y28273D01*
X63662Y28186D01*
X63613Y28168D01*
X60740Y26625D01*
X60167Y26700D01*
X59694Y26838D01*
X59606Y26875D01*
X59214Y26969D01*
X57645Y27346D01*
X55635Y27504D01*
X53624Y27346D01*
X51868Y26924D01*
X51664Y26875D01*
X51394Y26764D01*
X50927Y26677D01*
X50609Y26635D01*
X47686Y28206D01*
X47638Y28224D01*
X47507Y28311D01*
X47184Y28375D01*
X46580Y28495D01*
D02*
G37*
G36*
X105905Y11811D02*
X91339D01*
Y3543D01*
X91623D01*
Y3242D01*
X105324D01*
Y3543D01*
X105905D01*
Y11811D01*
D02*
G37*
%LPD*%
G36*
X64371Y16506D02*
X64413Y16369D01*
X64590Y14568D01*
X64413Y12766D01*
X63888Y11034D01*
X63237Y9817D01*
X62589Y9628D01*
X61795Y10115D01*
X60554Y11175D01*
X59494Y12416D01*
X58641Y13807D01*
X58163Y14962D01*
X58355Y15220D01*
X58536Y15367D01*
X59965Y15179D01*
X61460Y15376D01*
X62852Y15952D01*
X63797Y16677D01*
X64371Y16506D01*
D02*
G37*
G36*
X48417Y15952D02*
X49810Y15376D01*
X51304Y15179D01*
X52733Y15367D01*
X52914Y15220D01*
X53107Y14962D01*
X52628Y13807D01*
X51776Y12416D01*
X50716Y11175D01*
X49475Y10115D01*
X48681Y9628D01*
X48032Y9817D01*
X47382Y11034D01*
X46856Y12766D01*
X46679Y14568D01*
X46856Y16369D01*
X46898Y16506D01*
X47472Y16677D01*
X48417Y15952D01*
D02*
G37*
G36*
X102887Y9374D02*
X102938Y9367D01*
X103048Y9352D01*
X103179Y9323D01*
X103317Y9279D01*
X103456Y9214D01*
X103595Y9134D01*
X103602D01*
X103609Y9119D01*
X103653Y9090D01*
X103718Y9032D01*
X103799Y8959D01*
X103886Y8864D01*
X103974Y8747D01*
X104061Y8609D01*
X104134Y8456D01*
Y8448D01*
X104141Y8434D01*
X104148Y8412D01*
X104163Y8383D01*
X104178Y8339D01*
X104192Y8288D01*
X104229Y8171D01*
X104265Y8026D01*
X104294Y7865D01*
X104316Y7683D01*
X104323Y7493D01*
Y7486D01*
Y7472D01*
Y7442D01*
Y7399D01*
X104316Y7348D01*
Y7289D01*
X104302Y7158D01*
X104272Y6998D01*
X104236Y6830D01*
X104185Y6655D01*
X104119Y6480D01*
Y6473D01*
X104112Y6458D01*
X104097Y6436D01*
X104083Y6407D01*
X104032Y6327D01*
X103966Y6225D01*
X103886Y6116D01*
X103784Y6006D01*
X103667Y5897D01*
X103529Y5795D01*
X103522D01*
X103514Y5787D01*
X103492Y5773D01*
X103463Y5758D01*
X103390Y5722D01*
X103288Y5678D01*
X103164Y5634D01*
X103033Y5598D01*
X102880Y5569D01*
X102727Y5562D01*
X102676D01*
X102618Y5569D01*
X102545Y5576D01*
X102457Y5591D01*
X102363Y5613D01*
X102268Y5642D01*
X102173Y5685D01*
X102166Y5693D01*
X102129Y5707D01*
X102085Y5737D01*
X102027Y5780D01*
X101969Y5824D01*
X101896Y5882D01*
X101830Y5948D01*
X101772Y6021D01*
Y4242D01*
X101152D01*
Y9301D01*
X101714D01*
Y8820D01*
X101721Y8835D01*
X101750Y8864D01*
X101787Y8915D01*
X101845Y8973D01*
X101910Y9046D01*
X101983Y9112D01*
X102071Y9177D01*
X102158Y9236D01*
X102173Y9243D01*
X102202Y9257D01*
X102260Y9279D01*
X102333Y9309D01*
X102421Y9338D01*
X102523Y9360D01*
X102639Y9374D01*
X102771Y9381D01*
X102851D01*
X102887Y9374D01*
D02*
G37*
G36*
X96618Y10089D02*
X94956D01*
Y5642D01*
X94285D01*
Y10089D01*
X92623D01*
Y10686D01*
X96618D01*
Y10089D01*
D02*
G37*
G36*
X98834Y9374D02*
X98900Y9367D01*
X98973Y9352D01*
X99053Y9338D01*
X99148Y9323D01*
X99344Y9257D01*
X99446Y9221D01*
X99549Y9170D01*
X99651Y9119D01*
X99753Y9046D01*
X99847Y8973D01*
X99942Y8886D01*
X99950Y8879D01*
X99964Y8864D01*
X99986Y8835D01*
X100015Y8798D01*
X100051Y8747D01*
X100095Y8682D01*
X100139Y8609D01*
X100183Y8529D01*
X100226Y8441D01*
X100270Y8332D01*
X100314Y8222D01*
X100350Y8098D01*
X100380Y7967D01*
X100401Y7829D01*
X100416Y7683D01*
X100423Y7523D01*
Y7515D01*
Y7493D01*
Y7457D01*
Y7406D01*
X100416Y7348D01*
X100409Y7275D01*
Y7202D01*
X100394Y7122D01*
X100372Y6939D01*
X100329Y6757D01*
X100277Y6575D01*
X100205Y6407D01*
Y6400D01*
X100197Y6393D01*
X100183Y6371D01*
X100168Y6341D01*
X100117Y6269D01*
X100051Y6181D01*
X99964Y6079D01*
X99855Y5977D01*
X99731Y5875D01*
X99585Y5780D01*
X99578D01*
X99570Y5773D01*
X99549Y5758D01*
X99512Y5744D01*
X99476Y5729D01*
X99432Y5715D01*
X99323Y5671D01*
X99199Y5634D01*
X99045Y5598D01*
X98885Y5569D01*
X98710Y5562D01*
X98637D01*
X98579Y5569D01*
X98513Y5576D01*
X98440Y5591D01*
X98353Y5605D01*
X98265Y5620D01*
X98069Y5678D01*
X97959Y5722D01*
X97857Y5766D01*
X97755Y5824D01*
X97653Y5890D01*
X97558Y5962D01*
X97464Y6050D01*
X97456Y6057D01*
X97442Y6072D01*
X97420Y6101D01*
X97391Y6145D01*
X97354Y6196D01*
X97318Y6254D01*
X97274Y6327D01*
X97230Y6414D01*
X97187Y6509D01*
X97143Y6619D01*
X97106Y6735D01*
X97070Y6859D01*
X97041Y6998D01*
X97019Y7143D01*
X97004Y7304D01*
X96997Y7472D01*
Y7486D01*
Y7515D01*
X97004Y7566D01*
Y7639D01*
X97012Y7719D01*
X97026Y7821D01*
X97041Y7924D01*
X97070Y8040D01*
X97099Y8157D01*
X97136Y8281D01*
X97179Y8412D01*
X97238Y8536D01*
X97296Y8653D01*
X97376Y8769D01*
X97456Y8879D01*
X97558Y8973D01*
X97566Y8980D01*
X97580Y8988D01*
X97609Y9010D01*
X97646Y9039D01*
X97690Y9068D01*
X97748Y9104D01*
X97806Y9141D01*
X97879Y9177D01*
X97959Y9214D01*
X98047Y9250D01*
X98244Y9316D01*
X98470Y9367D01*
X98586Y9374D01*
X98710Y9381D01*
X98783D01*
X98834Y9374D01*
D02*
G37*
%LPC*%
G36*
X102712Y8893D02*
X102676D01*
X102647Y8886D01*
X102574Y8871D01*
X102479Y8849D01*
X102370Y8806D01*
X102253Y8740D01*
X102188Y8696D01*
X102129Y8645D01*
X102071Y8587D01*
X102013Y8521D01*
Y8514D01*
X101998Y8507D01*
X101983Y8485D01*
X101969Y8456D01*
X101947Y8412D01*
X101918Y8368D01*
X101889Y8310D01*
X101867Y8252D01*
X101838Y8179D01*
X101808Y8098D01*
X101787Y8011D01*
X101757Y7916D01*
X101743Y7807D01*
X101728Y7698D01*
X101714Y7581D01*
Y7450D01*
Y7442D01*
Y7421D01*
Y7384D01*
X101721Y7333D01*
Y7275D01*
X101728Y7209D01*
X101750Y7056D01*
X101787Y6881D01*
X101830Y6713D01*
X101903Y6546D01*
X101947Y6473D01*
X101998Y6407D01*
X102013Y6393D01*
X102049Y6356D01*
X102107Y6298D01*
X102188Y6239D01*
X102290Y6181D01*
X102406Y6123D01*
X102537Y6086D01*
X102610Y6079D01*
X102683Y6072D01*
X102727D01*
X102756Y6079D01*
X102829Y6094D01*
X102931Y6116D01*
X103041Y6159D01*
X103157Y6218D01*
X103274Y6305D01*
X103332Y6356D01*
X103390Y6414D01*
Y6422D01*
X103405Y6429D01*
X103419Y6451D01*
X103434Y6480D01*
X103463Y6516D01*
X103485Y6567D01*
X103514Y6619D01*
X103543Y6684D01*
X103565Y6750D01*
X103595Y6837D01*
X103624Y6925D01*
X103646Y7019D01*
X103660Y7129D01*
X103675Y7245D01*
X103689Y7369D01*
Y7501D01*
Y7508D01*
Y7530D01*
Y7566D01*
X103682Y7617D01*
Y7676D01*
X103675Y7741D01*
X103653Y7894D01*
X103616Y8062D01*
X103565Y8230D01*
X103492Y8397D01*
X103449Y8478D01*
X103398Y8543D01*
Y8550D01*
X103383Y8558D01*
X103347Y8601D01*
X103288Y8653D01*
X103208Y8718D01*
X103106Y8784D01*
X102989Y8842D01*
X102858Y8879D01*
X102785Y8886D01*
X102712Y8893D01*
D02*
G37*
G36*
X98710Y8871D02*
X98666D01*
X98630Y8864D01*
X98550Y8857D01*
X98440Y8827D01*
X98317Y8784D01*
X98185Y8725D01*
X98061Y8638D01*
X97996Y8580D01*
X97938Y8521D01*
Y8514D01*
X97923Y8507D01*
X97908Y8485D01*
X97886Y8456D01*
X97865Y8419D01*
X97843Y8375D01*
X97813Y8317D01*
X97784Y8259D01*
X97755Y8186D01*
X97726Y8113D01*
X97704Y8026D01*
X97682Y7931D01*
X97660Y7829D01*
X97646Y7719D01*
X97639Y7595D01*
X97631Y7472D01*
Y7464D01*
Y7442D01*
Y7406D01*
X97639Y7355D01*
Y7297D01*
X97646Y7231D01*
X97668Y7078D01*
X97704Y6903D01*
X97763Y6728D01*
X97835Y6560D01*
X97886Y6487D01*
X97938Y6414D01*
X97945D01*
X97952Y6400D01*
X97996Y6363D01*
X98061Y6305D01*
X98149Y6247D01*
X98258Y6181D01*
X98389Y6123D01*
X98542Y6086D01*
X98623Y6079D01*
X98710Y6072D01*
X98754D01*
X98790Y6079D01*
X98871Y6094D01*
X98980Y6116D01*
X99097Y6159D01*
X99228Y6218D01*
X99352Y6305D01*
X99417Y6363D01*
X99476Y6422D01*
X99483Y6429D01*
X99490Y6436D01*
X99505Y6458D01*
X99527Y6487D01*
X99549Y6524D01*
X99578Y6567D01*
X99607Y6626D01*
X99636Y6684D01*
X99665Y6757D01*
X99687Y6837D01*
X99716Y6925D01*
X99738Y7019D01*
X99760Y7129D01*
X99774Y7238D01*
X99789Y7362D01*
Y7493D01*
Y7501D01*
Y7523D01*
Y7559D01*
X99782Y7603D01*
Y7661D01*
X99774Y7727D01*
X99753Y7880D01*
X99716Y8040D01*
X99658Y8215D01*
X99578Y8375D01*
X99534Y8456D01*
X99476Y8521D01*
Y8529D01*
X99461Y8536D01*
X99417Y8580D01*
X99352Y8631D01*
X99264Y8696D01*
X99155Y8762D01*
X99024Y8820D01*
X98878Y8857D01*
X98798Y8864D01*
X98710Y8871D01*
D02*
G37*
%LPD*%
D12*
X19685Y73622D02*
X20669Y74606D01*
X28500D01*
X127176Y99389D02*
X134661D01*
X134800Y99250D01*
X127081Y99389D02*
X127176D01*
X126400Y100070D02*
X127081Y99389D01*
X126400Y100070D02*
Y101900D01*
X125106Y103194D02*
Y106649D01*
Y103194D02*
X126400Y101900D01*
X118905Y106649D02*
X125106D01*
D13*
X65604Y25601D02*
G03*
X64286Y26917I-884J432D01*
G01*
X54152Y19610D02*
G03*
X54152Y19610I-1575J0D01*
G01*
X60212Y6900D02*
G03*
X62296Y8124I-4309J9722D01*
G01*
X54553Y18064D02*
G03*
X55700Y15500I4503J475D01*
G01*
X46898Y20206D02*
G03*
X47840Y7647I9016J-5639D01*
G01*
X49348Y8254D02*
G03*
X51416Y6985I6555J8368D01*
G01*
X47872Y7612D02*
G03*
X54969Y16342I-4510J10916D01*
G01*
X53686Y5987D02*
G03*
X54867Y5987I591J0D01*
G01*
D02*
G03*
X51277Y5987I-1795J0D01*
G01*
X55044Y6023D02*
G03*
X56369Y5998I859J10599D01*
G01*
X51277Y5987D02*
G03*
X52458Y5987I591J0D01*
G01*
X59244Y25485D02*
G03*
X51862Y25429I-3609J-10832D01*
G01*
X55635Y20953D02*
G03*
X55635Y20953I-4331J0D01*
G01*
X47014Y26954D02*
G03*
X45695Y25639I-434J-883D01*
G01*
X54339Y20004D02*
G03*
X54339Y20004I-2156J0D01*
G01*
X54226Y19802D02*
G03*
X54226Y19802I-1828J0D01*
G01*
X60148Y19772D02*
G03*
X60148Y19772I-1575J0D01*
G01*
X55569Y15500D02*
G03*
X56715Y18050I-3356J3039D01*
G01*
X63430Y7647D02*
G03*
X64339Y20258I-8074J6920D01*
G01*
X56300Y16342D02*
G03*
X63398Y7612I11607J2186D01*
G01*
X64296Y20953D02*
G03*
X64296Y20953I-4331J0D01*
G01*
X61122Y20166D02*
G03*
X61122Y20166I-2156J0D01*
G01*
X60580Y19964D02*
G03*
X60580Y19964I-1828J0D01*
G01*
X52485Y5992D02*
G03*
X53666Y5992I591J0D01*
G01*
X56582Y6143D02*
G03*
X57763Y6143I591J0D01*
G01*
X60172D02*
G03*
X56582Y6143I-1795J0D01*
G01*
X58991D02*
G03*
X60172Y6143I591J0D01*
G01*
X57783Y6148D02*
G03*
X58964Y6148I591J0D01*
G01*
X61177Y25246D02*
X64286Y26917D01*
X64136Y22479D02*
X65604Y25601D01*
X47014Y26954D02*
X50123Y25283D01*
X45695Y25639D02*
X47164Y22516D01*
D15*
X19685Y73622D02*
D03*
Y79921D02*
D03*
X45276Y73622D02*
D03*
Y79921D02*
D03*
X134800Y99250D02*
D03*
Y92950D02*
D03*
X185039Y103937D02*
D03*
Y97638D02*
D03*
X115000Y84250D02*
D03*
Y77950D02*
D03*
D16*
X131405Y106649D02*
D03*
X125106D02*
D03*
X112606D02*
D03*
X118905D02*
D03*
X121350Y84000D02*
D03*
X127650D02*
D03*
D17*
X160400Y45700D02*
D03*
D18*
X121227Y35700D02*
D03*
Y55700D02*
D03*
D19*
X127176Y91909D02*
D03*
Y95649D02*
D03*
Y99389D02*
D03*
X117334D02*
D03*
Y91909D02*
D03*
D20*
X62992Y96260D02*
D03*
Y76968D02*
D03*
D21*
X28500Y74606D02*
D03*
X37402D02*
D03*
D22*
X28500Y80709D02*
D03*
X37402D02*
D03*
D23*
X61102Y113917D02*
D03*
D24*
X43307Y109724D02*
D03*
Y118110D02*
D03*
D25*
X159449Y98425D02*
D03*
Y109449D02*
D03*
X94488Y61516D02*
D03*
Y72539D02*
D03*
D26*
X173967Y109941D02*
D03*
Y98130D02*
D03*
X78740Y72835D02*
D03*
Y61024D02*
D03*
D41*
X118712Y99389D02*
X120900Y97201D01*
Y96200D02*
Y97201D01*
X117334Y99389D02*
X118712D01*
X115000Y74200D02*
Y77950D01*
X114600Y73800D02*
X115000Y74200D01*
X134800Y92950D02*
X138150D01*
X139000Y92100D01*
X133950Y93800D02*
X134800Y92950D01*
X132100Y93800D02*
X133950D01*
X127176Y95649D02*
X127861Y94965D01*
X130935D01*
X132100Y93800D01*
X135500Y89000D02*
X135600D01*
X134800Y89700D02*
Y92950D01*
Y89700D02*
X135500Y89000D01*
X131405Y106649D02*
X134849D01*
X136400Y108200D01*
X37402Y80709D02*
Y84646D01*
X28500Y80451D02*
Y84388D01*
X28500Y84388D02*
X28500Y84388D01*
D42*
X37402Y74606D02*
X37894Y74114D01*
X44783D01*
X45276Y73622D01*
D43*
X62795Y76772D02*
X62992Y76968D01*
X53150Y76772D02*
X62795D01*
X45276Y79921D02*
X50000D01*
X53150Y76772D01*
X50984Y96260D02*
X62992D01*
X47244Y92520D02*
X50984Y96260D01*
X19685Y86614D02*
X25591Y92520D01*
X47244D01*
X19685Y79921D02*
Y86614D01*
D44*
X121227Y55700D02*
Y68077D01*
X127650Y74500D02*
Y84000D01*
X121227Y68077D02*
X127650Y74500D01*
X127176Y91909D02*
X127216D01*
X127413Y91712D01*
Y84237D02*
Y91712D01*
Y84237D02*
X127650Y84000D01*
D45*
X209700Y34300D02*
D03*
Y118110D02*
D03*
X19685Y34300D02*
D03*
Y118110D02*
D03*
D46*
X228347Y98425D02*
D03*
X230315Y94488D02*
D03*
X228347Y90551D02*
D03*
X230315Y86614D02*
D03*
X224410Y98425D02*
D03*
X226378Y94488D02*
D03*
X224410Y90551D02*
D03*
X226378Y86614D02*
D03*
X220473Y98425D02*
D03*
X222441Y94488D02*
D03*
X220473Y90551D02*
D03*
X222441Y86614D02*
D03*
X216536Y98425D02*
D03*
X218504Y94488D02*
D03*
X216536Y90551D02*
D03*
X218504Y86614D02*
D03*
X212599Y98425D02*
D03*
X214567Y94488D02*
D03*
X212599Y90551D02*
D03*
X214567Y86614D02*
D03*
X208662Y98425D02*
D03*
X210630Y94488D02*
D03*
X208662Y90551D02*
D03*
X210630Y86614D02*
D03*
X204725Y98425D02*
D03*
X206693Y94488D02*
D03*
X204725Y90551D02*
D03*
X206693Y86614D02*
D03*
X200788Y98425D02*
D03*
X202756Y94488D02*
D03*
X200788Y90551D02*
D03*
X202756Y86614D02*
D03*
X196851Y98425D02*
D03*
X198819Y94488D02*
D03*
X196851Y90551D02*
D03*
X198819Y86614D02*
D03*
X192914Y98425D02*
D03*
X194882Y94488D02*
D03*
X192914Y90551D02*
D03*
X194882Y86614D02*
D03*
X190945Y94488D02*
D03*
X188977Y90551D02*
D03*
X190945Y86614D02*
D03*
X185040Y90551D02*
D03*
X187008Y86614D02*
D03*
X181103Y90551D02*
D03*
X183071Y86614D02*
D03*
X177166Y90551D02*
D03*
X179134Y86614D02*
D03*
X173229Y90551D02*
D03*
X175197Y86614D02*
D03*
X169292Y90551D02*
D03*
X171260Y86614D02*
D03*
X165355Y90551D02*
D03*
X167323Y86614D02*
D03*
X161418Y90551D02*
D03*
X163386Y86614D02*
D03*
X157481Y90551D02*
D03*
X159449Y86614D02*
D03*
X153544Y90551D02*
D03*
X155512Y86614D02*
D03*
X149607Y98425D02*
D03*
X151575Y94488D02*
D03*
X149607Y90551D02*
D03*
X151575Y86614D02*
D03*
X127953Y31496D02*
D03*
X125985Y27559D02*
D03*
X127953Y23622D02*
D03*
X125985Y19685D02*
D03*
X127953Y15748D02*
D03*
X125985Y11811D02*
D03*
X124016Y31496D02*
D03*
X122048Y27559D02*
D03*
X124016Y23622D02*
D03*
X122048Y19685D02*
D03*
X124016Y15748D02*
D03*
X122048Y11811D02*
D03*
X120079Y31496D02*
D03*
X118111Y27559D02*
D03*
X120079Y23622D02*
D03*
X118111Y19685D02*
D03*
X120079Y15748D02*
D03*
X118111Y11811D02*
D03*
X116142Y31496D02*
D03*
X114173Y27559D02*
D03*
X116142Y23622D02*
D03*
X114173Y19685D02*
D03*
X116142Y15748D02*
D03*
X114173Y11811D02*
D03*
X110237Y43307D02*
D03*
Y35433D02*
D03*
X112205Y31496D02*
D03*
X110237Y27559D02*
D03*
X112205Y23622D02*
D03*
X110237Y19685D02*
D03*
X112205Y15748D02*
D03*
X110237Y11811D02*
D03*
X106299Y59055D02*
D03*
Y51181D02*
D03*
Y43307D02*
D03*
X108268Y39370D02*
D03*
X106299Y35433D02*
D03*
X108268Y31496D02*
D03*
X106299Y27559D02*
D03*
X108268Y23622D02*
D03*
X106299Y19685D02*
D03*
X108268Y15748D02*
D03*
X104331Y62992D02*
D03*
X102363Y59055D02*
D03*
X104331Y55118D02*
D03*
X102363Y51181D02*
D03*
X104331Y47244D02*
D03*
X102363Y43307D02*
D03*
X104331Y39370D02*
D03*
X102363Y35433D02*
D03*
X104331Y31496D02*
D03*
X102363Y27559D02*
D03*
X104331Y23622D02*
D03*
X102363Y19685D02*
D03*
X104331Y15748D02*
D03*
X100394Y55118D02*
D03*
X98426Y51181D02*
D03*
X100394Y47244D02*
D03*
X98426Y43307D02*
D03*
X100394Y39370D02*
D03*
X98426Y35433D02*
D03*
X100394Y31496D02*
D03*
X98426Y27559D02*
D03*
X100394Y23622D02*
D03*
X98426Y19685D02*
D03*
X100394Y15748D02*
D03*
X96457Y55118D02*
D03*
Y47244D02*
D03*
X94489Y43307D02*
D03*
X96457Y39370D02*
D03*
X94489Y35433D02*
D03*
X96457Y31496D02*
D03*
X94489Y27559D02*
D03*
X96457Y23622D02*
D03*
X94489Y19685D02*
D03*
X96457Y15748D02*
D03*
X92520Y55118D02*
D03*
X90552Y43307D02*
D03*
X92520Y39370D02*
D03*
Y31496D02*
D03*
X90552Y27559D02*
D03*
X92520Y23622D02*
D03*
X90552Y19685D02*
D03*
X92520Y15748D02*
D03*
X86615Y59055D02*
D03*
X88583Y55118D02*
D03*
X86615Y43307D02*
D03*
X88583Y31496D02*
D03*
X86615Y27559D02*
D03*
X88583Y23622D02*
D03*
X86615Y19685D02*
D03*
X88583Y15748D02*
D03*
X86615Y11811D02*
D03*
X84646Y55118D02*
D03*
X82677Y43307D02*
D03*
X84646Y31496D02*
D03*
X82677Y27559D02*
D03*
X84646Y23622D02*
D03*
X82677Y19685D02*
D03*
X84646Y15748D02*
D03*
X82677Y11811D02*
D03*
X80709Y55118D02*
D03*
X78740Y43307D02*
D03*
X80709Y31496D02*
D03*
X78740Y27559D02*
D03*
X80709Y23622D02*
D03*
X78740Y19685D02*
D03*
X80709Y15748D02*
D03*
X78740Y11811D02*
D03*
X76772Y55118D02*
D03*
X74803Y43307D02*
D03*
X76772Y31496D02*
D03*
X74803Y27559D02*
D03*
X76772Y23622D02*
D03*
X74803Y19685D02*
D03*
X76772Y15748D02*
D03*
X74803Y11811D02*
D03*
X70866Y59055D02*
D03*
X72835Y55118D02*
D03*
X70866Y43307D02*
D03*
X72835Y31496D02*
D03*
X70866Y27559D02*
D03*
X72835Y23622D02*
D03*
X70866Y19685D02*
D03*
X72835Y15748D02*
D03*
X70866Y11811D02*
D03*
X68898Y62992D02*
D03*
X66929Y59055D02*
D03*
X68898Y55118D02*
D03*
X66929Y43307D02*
D03*
X68898Y31496D02*
D03*
Y23622D02*
D03*
Y15748D02*
D03*
X64961Y62992D02*
D03*
X62992Y59055D02*
D03*
X64961Y55118D02*
D03*
X62992Y43307D02*
D03*
X64961Y31496D02*
D03*
X61024Y62992D02*
D03*
X59055Y59055D02*
D03*
X61024Y55118D02*
D03*
X59055Y43307D02*
D03*
X61024Y31496D02*
D03*
X57087Y62992D02*
D03*
X55118Y59055D02*
D03*
X57087Y55118D02*
D03*
X55118Y43307D02*
D03*
X57087Y31496D02*
D03*
X53150Y62992D02*
D03*
X51181Y59055D02*
D03*
X53150Y55118D02*
D03*
X51181Y51181D02*
D03*
X53150Y47244D02*
D03*
X51181Y43307D02*
D03*
X53150Y39370D02*
D03*
Y31496D02*
D03*
X49213Y62992D02*
D03*
X47244Y59055D02*
D03*
X49213Y55118D02*
D03*
X47244Y51181D02*
D03*
X49213Y47244D02*
D03*
X47244Y43307D02*
D03*
X49213Y39370D02*
D03*
Y31496D02*
D03*
X45276Y62992D02*
D03*
X43307Y59055D02*
D03*
X45276Y55118D02*
D03*
X43307Y51181D02*
D03*
Y43307D02*
D03*
X45276Y39370D02*
D03*
X43307Y35433D02*
D03*
X45276Y31496D02*
D03*
X43307Y19685D02*
D03*
X41339Y62992D02*
D03*
X39370Y59055D02*
D03*
X41339Y55118D02*
D03*
Y47244D02*
D03*
X39370Y35433D02*
D03*
X41339Y31496D02*
D03*
X39370Y27559D02*
D03*
X41339Y23622D02*
D03*
X39370Y19685D02*
D03*
X41339Y15748D02*
D03*
X39370Y11811D02*
D03*
X35433Y59055D02*
D03*
Y51181D02*
D03*
X37402Y47244D02*
D03*
X35433Y43307D02*
D03*
X37402Y39370D02*
D03*
X35433Y35433D02*
D03*
X37402Y31496D02*
D03*
X35433Y27559D02*
D03*
X37402Y23622D02*
D03*
X35433Y19685D02*
D03*
X37402Y15748D02*
D03*
X35433Y11811D02*
D03*
X33465Y62992D02*
D03*
X31496Y59055D02*
D03*
X33465Y55118D02*
D03*
X31496Y43307D02*
D03*
X33465Y39370D02*
D03*
Y31496D02*
D03*
Y23622D02*
D03*
X31496Y19685D02*
D03*
X33465Y15748D02*
D03*
X31496Y11811D02*
D03*
X27559Y59055D02*
D03*
Y51181D02*
D03*
X29528Y47244D02*
D03*
Y23622D02*
D03*
X27559Y19685D02*
D03*
X29528Y15748D02*
D03*
X27559Y11811D02*
D03*
X25591Y62992D02*
D03*
X23622Y59055D02*
D03*
X25591Y55118D02*
D03*
X23622Y51181D02*
D03*
X25591Y47244D02*
D03*
X23622Y19685D02*
D03*
X25591Y15748D02*
D03*
X23622Y11811D02*
D03*
X21654Y62992D02*
D03*
X19685Y59055D02*
D03*
X21654Y55118D02*
D03*
X19685Y51181D02*
D03*
Y19685D02*
D03*
X21654Y15748D02*
D03*
X19685Y11811D02*
D03*
X17717Y62992D02*
D03*
X15748Y59055D02*
D03*
X17717Y55118D02*
D03*
X15748Y51181D02*
D03*
Y19685D02*
D03*
X17717Y15748D02*
D03*
X15748Y11811D02*
D03*
X13780Y62992D02*
D03*
X11811Y59055D02*
D03*
X13780Y55118D02*
D03*
X11811Y51181D02*
D03*
X13780Y47244D02*
D03*
X11811Y19685D02*
D03*
X13780Y15748D02*
D03*
X11811Y11811D02*
D03*
X232284Y70866D02*
D03*
Y62992D02*
D03*
Y55118D02*
D03*
Y47244D02*
D03*
Y39370D02*
D03*
Y31496D02*
D03*
Y23622D02*
D03*
Y15748D02*
D03*
Y7874D02*
D03*
X230315Y74803D02*
D03*
X228347Y70866D02*
D03*
X230315Y66929D02*
D03*
X228347Y62992D02*
D03*
X230315Y59055D02*
D03*
X228347Y55118D02*
D03*
X230315Y51181D02*
D03*
X228347Y47244D02*
D03*
X230315Y43307D02*
D03*
X228347Y39370D02*
D03*
X230315Y35433D02*
D03*
X228347Y31496D02*
D03*
X230315Y27559D02*
D03*
X228347Y23622D02*
D03*
X230315Y19685D02*
D03*
X228347Y15748D02*
D03*
X230315Y11811D02*
D03*
X228347Y7874D02*
D03*
X226378Y74803D02*
D03*
X224410Y70866D02*
D03*
X226378Y66929D02*
D03*
X224410Y62992D02*
D03*
X226378Y59055D02*
D03*
X224410Y55118D02*
D03*
X226378Y51181D02*
D03*
X224410Y47244D02*
D03*
X226378Y43307D02*
D03*
X224410Y39370D02*
D03*
X226378Y35433D02*
D03*
X224410Y31496D02*
D03*
X226378Y27559D02*
D03*
X224410Y23622D02*
D03*
X226378Y19685D02*
D03*
X224410Y15748D02*
D03*
X226378Y11811D02*
D03*
X224410Y7874D02*
D03*
X222441Y74803D02*
D03*
X220473Y70866D02*
D03*
X222441Y66929D02*
D03*
X220473Y62992D02*
D03*
X222441Y59055D02*
D03*
X220473Y55118D02*
D03*
X222441Y51181D02*
D03*
X220473Y47244D02*
D03*
X222441Y43307D02*
D03*
Y27559D02*
D03*
X220473Y23622D02*
D03*
X222441Y19685D02*
D03*
X220473Y15748D02*
D03*
X222441Y11811D02*
D03*
X220473Y7874D02*
D03*
X218504Y74803D02*
D03*
X216536Y70866D02*
D03*
X218504Y66929D02*
D03*
X216536Y62992D02*
D03*
X218504Y59055D02*
D03*
X216536Y55118D02*
D03*
X218504Y51181D02*
D03*
X216536Y47244D02*
D03*
X218504Y19685D02*
D03*
X216536Y15748D02*
D03*
X218504Y11811D02*
D03*
X216536Y7874D02*
D03*
X214567Y74803D02*
D03*
X212599Y70866D02*
D03*
X214567Y66929D02*
D03*
X212599Y62992D02*
D03*
X214567Y59055D02*
D03*
X212599Y55118D02*
D03*
X214567Y51181D02*
D03*
Y19685D02*
D03*
X212599Y15748D02*
D03*
X214567Y11811D02*
D03*
X212599Y7874D02*
D03*
X210630Y74803D02*
D03*
X208662Y70866D02*
D03*
X210630Y66929D02*
D03*
X208662Y62992D02*
D03*
X210630Y59055D02*
D03*
X208662Y55118D02*
D03*
X210630Y51181D02*
D03*
Y19685D02*
D03*
X208662Y15748D02*
D03*
X210630Y11811D02*
D03*
X208662Y7874D02*
D03*
X206693Y74803D02*
D03*
X204725Y70866D02*
D03*
X206693Y66929D02*
D03*
X204725Y62992D02*
D03*
X206693Y59055D02*
D03*
X204725Y55118D02*
D03*
X206693Y51181D02*
D03*
Y19685D02*
D03*
X204725Y15748D02*
D03*
X206693Y11811D02*
D03*
X204725Y7874D02*
D03*
X202756Y74803D02*
D03*
X200788Y70866D02*
D03*
X202756Y66929D02*
D03*
X200788Y62992D02*
D03*
X202756Y59055D02*
D03*
X200788Y55118D02*
D03*
X202756Y51181D02*
D03*
X200788Y47244D02*
D03*
X202756Y19685D02*
D03*
X200788Y15748D02*
D03*
X202756Y11811D02*
D03*
X200788Y7874D02*
D03*
X198819Y74803D02*
D03*
X196851Y70866D02*
D03*
X198819Y66929D02*
D03*
X196851Y62992D02*
D03*
X198819Y59055D02*
D03*
X196851Y55118D02*
D03*
X198819Y51181D02*
D03*
X196851Y47244D02*
D03*
X198819Y43307D02*
D03*
X196851Y23622D02*
D03*
X198819Y19685D02*
D03*
X196851Y15748D02*
D03*
X198819Y11811D02*
D03*
X196851Y7874D02*
D03*
X194882Y74803D02*
D03*
X192914Y70866D02*
D03*
X194882Y66929D02*
D03*
X192914Y62992D02*
D03*
X194882Y59055D02*
D03*
X192914Y55118D02*
D03*
X194882Y51181D02*
D03*
X192914Y47244D02*
D03*
X194882Y43307D02*
D03*
X192914Y39370D02*
D03*
X194882Y35433D02*
D03*
X192914Y31496D02*
D03*
X194882Y27559D02*
D03*
X192914Y23622D02*
D03*
X194882Y19685D02*
D03*
X192914Y15748D02*
D03*
X194882Y11811D02*
D03*
X192914Y7874D02*
D03*
X190945Y74803D02*
D03*
X188977Y70866D02*
D03*
X190945Y66929D02*
D03*
X188977Y62992D02*
D03*
X190945Y59055D02*
D03*
X188977Y55118D02*
D03*
X190945Y51181D02*
D03*
X188977Y47244D02*
D03*
X190945Y43307D02*
D03*
X188977Y39370D02*
D03*
X190945Y35433D02*
D03*
X188977Y31496D02*
D03*
X190945Y27559D02*
D03*
X188977Y23622D02*
D03*
X190945Y19685D02*
D03*
X188977Y15748D02*
D03*
X190945Y11811D02*
D03*
X188977Y7874D02*
D03*
X187008Y74803D02*
D03*
X185040Y70866D02*
D03*
X187008Y66929D02*
D03*
X185040Y62992D02*
D03*
X187008Y59055D02*
D03*
X185040Y55118D02*
D03*
X187008Y51181D02*
D03*
X185040Y47244D02*
D03*
X187008Y43307D02*
D03*
X185040Y39370D02*
D03*
X187008Y35433D02*
D03*
X185040Y31496D02*
D03*
X187008Y27559D02*
D03*
X185040Y23622D02*
D03*
X187008Y19685D02*
D03*
X185040Y15748D02*
D03*
X187008Y11811D02*
D03*
X185040Y7874D02*
D03*
X183071Y74803D02*
D03*
X181103Y70866D02*
D03*
X183071Y66929D02*
D03*
X181103Y62992D02*
D03*
X183071Y59055D02*
D03*
X181103Y55118D02*
D03*
X183071Y51181D02*
D03*
X181103Y47244D02*
D03*
X183071Y43307D02*
D03*
X181103Y39370D02*
D03*
X183071Y35433D02*
D03*
X181103Y31496D02*
D03*
X183071Y27559D02*
D03*
X181103Y23622D02*
D03*
X183071Y19685D02*
D03*
X181103Y15748D02*
D03*
X183071Y11811D02*
D03*
X181103Y7874D02*
D03*
X179134Y74803D02*
D03*
X177166Y70866D02*
D03*
X179134Y19685D02*
D03*
X177166Y15748D02*
D03*
X179134Y11811D02*
D03*
X177166Y7874D02*
D03*
X175197Y74803D02*
D03*
X173229Y70866D02*
D03*
X175197Y19685D02*
D03*
X173229Y15748D02*
D03*
X175197Y11811D02*
D03*
X173229Y7874D02*
D03*
X171260Y74803D02*
D03*
X169292Y70866D02*
D03*
X171260Y19685D02*
D03*
X169292Y15748D02*
D03*
X171260Y11811D02*
D03*
X169292Y7874D02*
D03*
X167323Y74803D02*
D03*
X165355Y70866D02*
D03*
X167323Y19685D02*
D03*
X165355Y15748D02*
D03*
X167323Y11811D02*
D03*
X165355Y7874D02*
D03*
X163386Y74803D02*
D03*
X161418Y70866D02*
D03*
X163386Y19685D02*
D03*
X161418Y15748D02*
D03*
X163386Y11811D02*
D03*
X161418Y7874D02*
D03*
X159449Y74803D02*
D03*
X157481Y70866D02*
D03*
X159449Y19685D02*
D03*
X157481Y15748D02*
D03*
X159449Y11811D02*
D03*
X157481Y7874D02*
D03*
X155512Y74803D02*
D03*
X153544Y70866D02*
D03*
X155512Y19685D02*
D03*
X153544Y15748D02*
D03*
X155512Y11811D02*
D03*
X153544Y7874D02*
D03*
X151575Y74803D02*
D03*
X149607Y70866D02*
D03*
X151575Y19685D02*
D03*
X149607Y15748D02*
D03*
X151575Y11811D02*
D03*
X149607Y7874D02*
D03*
X147638Y74803D02*
D03*
X145670Y70866D02*
D03*
X147638Y19685D02*
D03*
X145670Y15748D02*
D03*
X147638Y11811D02*
D03*
X145670Y7874D02*
D03*
X143701Y74803D02*
D03*
X141733Y70866D02*
D03*
X143701Y19685D02*
D03*
X141733Y15748D02*
D03*
X143701Y11811D02*
D03*
X141733Y7874D02*
D03*
D47*
X120900Y96200D02*
D03*
X114600Y73800D02*
D03*
X139000Y92100D02*
D03*
X135600Y89000D02*
D03*
X136400Y108200D02*
D03*
X175197Y62992D02*
D03*
X143701Y27559D02*
D03*
X147638D02*
D03*
X175197Y59055D02*
D03*
Y55118D02*
D03*
Y51181D02*
D03*
Y47244D02*
D03*
Y43307D02*
D03*
Y39370D02*
D03*
Y35433D02*
D03*
Y31496D02*
D03*
Y27559D02*
D03*
X159449D02*
D03*
X155512D02*
D03*
X151575D02*
D03*
X163386D02*
D03*
Y31496D02*
D03*
Y35433D02*
D03*
Y39370D02*
D03*
Y43307D02*
D03*
X167323D02*
D03*
Y39370D02*
D03*
Y35433D02*
D03*
Y31496D02*
D03*
Y27559D02*
D03*
X171260Y43307D02*
D03*
Y39370D02*
D03*
Y35433D02*
D03*
Y31496D02*
D03*
Y27559D02*
D03*
X163386Y47244D02*
D03*
Y51181D02*
D03*
Y55118D02*
D03*
Y59055D02*
D03*
Y62992D02*
D03*
X167323D02*
D03*
Y59055D02*
D03*
Y55118D02*
D03*
Y51181D02*
D03*
Y47244D02*
D03*
X171260Y62992D02*
D03*
Y59055D02*
D03*
Y55118D02*
D03*
Y51181D02*
D03*
Y47244D02*
D03*
X143701Y39370D02*
D03*
X147638D02*
D03*
X151575D02*
D03*
X155512D02*
D03*
X159449D02*
D03*
Y35433D02*
D03*
X155512D02*
D03*
X151575D02*
D03*
X147638D02*
D03*
X143701D02*
D03*
X159449Y31496D02*
D03*
X155512D02*
D03*
X151575D02*
D03*
X147638D02*
D03*
X143701D02*
D03*
Y51181D02*
D03*
X147638D02*
D03*
X151575D02*
D03*
X155512D02*
D03*
X159449D02*
D03*
Y47244D02*
D03*
X155512D02*
D03*
X151575D02*
D03*
X147638D02*
D03*
X143701D02*
D03*
X159449Y43307D02*
D03*
X155512D02*
D03*
X151575D02*
D03*
X147638D02*
D03*
X143701D02*
D03*
Y62992D02*
D03*
X147638D02*
D03*
X151575D02*
D03*
X155512D02*
D03*
X159449D02*
D03*
Y59055D02*
D03*
X155512D02*
D03*
X151575D02*
D03*
X147638D02*
D03*
X143701D02*
D03*
X159449Y55118D02*
D03*
X155512D02*
D03*
X151575D02*
D03*
X147638D02*
D03*
X143701D02*
D03*
X53150Y110236D02*
D03*
X57087D02*
D03*
X61024D02*
D03*
X64961D02*
D03*
X68898D02*
D03*
X53150Y114173D02*
D03*
X57087D02*
D03*
X61024D02*
D03*
X64961D02*
D03*
X68898D02*
D03*
Y118110D02*
D03*
X64961D02*
D03*
X61024D02*
D03*
X57087D02*
D03*
X53150D02*
D03*
X37402Y84646D02*
D03*
X28500Y84388D02*
D03*
M02*
