G04*
G04 #@! TF.GenerationSoftware,Altium Limited,Altium Designer,20.0.2 (26)*
G04*
G04 Layer_Color=65535*
%FSLAX25Y25*%
%MOIN*%
G70*
G01*
G75*
%ADD10C,0.00984*%
%ADD11C,0.00394*%
%ADD12C,0.01000*%
%ADD13C,0.00787*%
%ADD14C,0.01500*%
D10*
X121719Y59735D02*
G03*
X121719Y59735I-492J0D01*
G01*
X130228Y88562D02*
G03*
X130228Y88562I-492J0D01*
G01*
X44035Y124941D02*
G03*
X44035Y124941I-492J0D01*
G01*
D11*
X31551Y81693D02*
G03*
X31551Y81693I-197J0D01*
G01*
X40453D02*
G03*
X40453Y81693I-197J0D01*
G01*
D12*
X29600Y53800D02*
Y71000D01*
Y52400D02*
Y53800D01*
Y52400D02*
X47600Y34400D01*
X88900D01*
X47600Y44500D02*
X93600D01*
X37300Y54800D02*
X47600Y44500D01*
X37300Y54800D02*
Y71000D01*
X110236Y8905D02*
Y6905D01*
X111236Y5906D01*
X112236Y6905D01*
Y8905D01*
X113235Y5906D02*
Y6405D01*
X113735D01*
Y5906D01*
X113235D01*
X115734D02*
X116734D01*
X116234D01*
Y8905D01*
X115734Y8405D01*
X118234Y5906D02*
Y6405D01*
X118734D01*
Y5906D01*
X118234D01*
X120733Y8405D02*
X121233Y8905D01*
X122232D01*
X122732Y8405D01*
Y6405D01*
X122232Y5906D01*
X121233D01*
X120733Y6405D01*
Y8405D01*
X123732Y5906D02*
Y6405D01*
X124232D01*
Y5906D01*
X123732D01*
X126231Y8405D02*
X126731Y8905D01*
X127731D01*
X128230Y8405D01*
Y6405D01*
X127731Y5906D01*
X126731D01*
X126231Y6405D01*
Y8405D01*
X104392Y131890D02*
Y135889D01*
X106392D01*
X107058Y135222D01*
Y133889D01*
X106392Y133223D01*
X104392D01*
X108391Y134556D02*
Y131890D01*
Y133223D01*
X109058Y133889D01*
X109724Y134556D01*
X110390D01*
X113056Y131890D02*
X114389D01*
X115056Y132556D01*
Y133889D01*
X114389Y134556D01*
X113056D01*
X112390Y133889D01*
Y132556D01*
X113056Y131890D01*
X117055Y135222D02*
Y134556D01*
X116388D01*
X117721D01*
X117055D01*
Y132556D01*
X117721Y131890D01*
X121720D02*
X120387D01*
X119721Y132556D01*
Y133889D01*
X120387Y134556D01*
X121720D01*
X122387Y133889D01*
Y133223D01*
X119721D01*
X126385Y134556D02*
X124386D01*
X123720Y133889D01*
Y132556D01*
X124386Y131890D01*
X126385D01*
X128385Y135222D02*
Y134556D01*
X127718D01*
X129051D01*
X128385D01*
Y132556D01*
X129051Y131890D01*
X131051D02*
X132383D01*
X131717D01*
Y134556D01*
X131051D01*
X135049Y131890D02*
X136382D01*
X137048Y132556D01*
Y133889D01*
X136382Y134556D01*
X135049D01*
X134383Y133889D01*
Y132556D01*
X135049Y131890D01*
X138381D02*
Y134556D01*
X140381D01*
X141047Y133889D01*
Y131890D01*
X85646Y145731D02*
Y141732D01*
X87645D01*
X88311Y142399D01*
Y143065D01*
X87645Y143732D01*
X85646D01*
X87645D01*
X88311Y144398D01*
Y145064D01*
X87645Y145731D01*
X85646D01*
X90311Y144398D02*
X91644D01*
X92310Y143732D01*
Y141732D01*
X90311D01*
X89644Y142399D01*
X90311Y143065D01*
X92310D01*
X94310Y145064D02*
Y144398D01*
X93643D01*
X94976D01*
X94310D01*
Y142399D01*
X94976Y141732D01*
X97642Y145064D02*
Y144398D01*
X96975D01*
X98308D01*
X97642D01*
Y142399D01*
X98308Y141732D01*
X102307D02*
X100974D01*
X100308Y142399D01*
Y143732D01*
X100974Y144398D01*
X102307D01*
X102973Y143732D01*
Y143065D01*
X100308D01*
X104306Y144398D02*
Y141732D01*
Y143065D01*
X104973Y143732D01*
X105639Y144398D01*
X106306D01*
X108305D02*
Y142399D01*
X108972Y141732D01*
X110971D01*
Y141066D01*
X110304Y140399D01*
X109638D01*
X110971Y141732D02*
Y144398D01*
X116302D02*
Y142399D01*
X116969Y141732D01*
X118968D01*
Y144398D01*
X120301Y141732D02*
Y144398D01*
X122301D01*
X122967Y143732D01*
Y141732D01*
X126966Y145731D02*
Y141732D01*
X124966D01*
X124300Y142399D01*
Y143732D01*
X124966Y144398D01*
X126966D01*
X130298Y141732D02*
X128965D01*
X128299Y142399D01*
Y143732D01*
X128965Y144398D01*
X130298D01*
X130964Y143732D01*
Y143065D01*
X128299D01*
X132297Y144398D02*
Y141732D01*
Y143065D01*
X132964Y143732D01*
X133630Y144398D01*
X134297D01*
X136296D02*
X137629Y141732D01*
X138962Y144398D01*
X140961Y141732D02*
X142294D01*
X142961Y142399D01*
Y143732D01*
X142294Y144398D01*
X140961D01*
X140295Y143732D01*
Y142399D01*
X140961Y141732D01*
X144293D02*
X145626D01*
X144960D01*
Y145731D01*
X144293D01*
X148292Y145064D02*
Y144398D01*
X147626D01*
X148959D01*
X148292D01*
Y142399D01*
X148959Y141732D01*
X151624Y144398D02*
X152957D01*
X153624Y143732D01*
Y141732D01*
X151624D01*
X150958Y142399D01*
X151624Y143065D01*
X153624D01*
X156290Y140399D02*
X156956D01*
X157623Y141066D01*
Y144398D01*
X155623D01*
X154957Y143732D01*
Y142399D01*
X155623Y141732D01*
X157623D01*
X160955D02*
X159622D01*
X158955Y142399D01*
Y143732D01*
X159622Y144398D01*
X160955D01*
X161621Y143732D01*
Y143065D01*
X158955D01*
X55500Y48799D02*
X58166D01*
X56833Y50132D02*
Y47466D01*
X59499Y46800D02*
X60832D01*
X60165D01*
Y50799D01*
X59499Y50132D01*
X65497Y46800D02*
X62831D01*
X65497Y49466D01*
Y50132D01*
X64830Y50799D01*
X63497D01*
X62831Y50132D01*
X66830Y50799D02*
Y48133D01*
X68163Y46800D01*
X69495Y48133D01*
Y50799D01*
X77493D02*
X74827D01*
Y48799D01*
X76160D01*
X74827D01*
Y46800D01*
X78826Y49466D02*
Y47466D01*
X79492Y46800D01*
X81492D01*
Y49466D01*
X82824Y46800D02*
X84824D01*
X85490Y47466D01*
X84824Y48133D01*
X83491D01*
X82824Y48799D01*
X83491Y49466D01*
X85490D01*
X88823Y46800D02*
X87490D01*
X86823Y47466D01*
Y48799D01*
X87490Y49466D01*
X88823D01*
X89489Y48799D01*
Y48133D01*
X86823D01*
X93488Y50799D02*
Y46800D01*
X91488D01*
X90822Y47466D01*
Y48799D01*
X91488Y49466D01*
X93488D01*
X55500Y38399D02*
X58166D01*
X56833Y39732D02*
Y37066D01*
X59499Y36400D02*
X60832D01*
X60165D01*
Y40399D01*
X59499Y39732D01*
X65497Y36400D02*
X62831D01*
X65497Y39066D01*
Y39732D01*
X64830Y40399D01*
X63497D01*
X62831Y39732D01*
X66830Y40399D02*
Y37733D01*
X68163Y36400D01*
X69495Y37733D01*
Y40399D01*
X74827Y36400D02*
Y40399D01*
X76160Y39066D01*
X77493Y40399D01*
Y36400D01*
X79492Y39066D02*
X80825D01*
X81492Y38399D01*
Y36400D01*
X79492D01*
X78826Y37066D01*
X79492Y37733D01*
X81492D01*
X82824Y36400D02*
X84157D01*
X83491D01*
Y39066D01*
X82824D01*
X86157Y36400D02*
Y39066D01*
X88156D01*
X88823Y38399D01*
Y36400D01*
X76100Y114499D02*
Y110000D01*
X78349D01*
X79099Y110750D01*
Y113749D01*
X78349Y114499D01*
X76100D01*
X80599Y110000D02*
X82098D01*
X81348D01*
Y114499D01*
X80599Y113749D01*
X142451Y93699D02*
X141701Y92949D01*
Y91450D01*
X142451Y90700D01*
X145450D01*
X146200Y91450D01*
Y92949D01*
X145450Y93699D01*
X141701Y95199D02*
Y98198D01*
X142451D01*
X145450Y95199D01*
X146200D01*
X156401Y15851D02*
Y18850D01*
X155651Y19600D01*
X154152D01*
X153402Y18850D01*
Y15851D01*
X154152Y15101D01*
X155651D01*
X154901Y16601D02*
X156401Y15101D01*
X155651D02*
X156401Y15851D01*
X157901Y15101D02*
X159400D01*
X158650D01*
Y19600D01*
X157901Y18850D01*
X156801Y118350D02*
X156052Y119100D01*
X154552D01*
X153802Y118350D01*
Y115351D01*
X154552Y114601D01*
X156052D01*
X156801Y115351D01*
X161300Y119100D02*
X159801Y118350D01*
X158301Y116851D01*
Y115351D01*
X159051Y114601D01*
X160550D01*
X161300Y115351D01*
Y116101D01*
X160550Y116851D01*
X158301D01*
X185701Y111150D02*
X184952Y111900D01*
X183452D01*
X182702Y111150D01*
Y108151D01*
X183452Y107401D01*
X184952D01*
X185701Y108151D01*
X190200Y111900D02*
X187201D01*
Y109651D01*
X188700Y110400D01*
X189450D01*
X190200Y109651D01*
Y108151D01*
X189450Y107401D01*
X187951D01*
X187201Y108151D01*
X173101Y118350D02*
X172352Y119100D01*
X170852D01*
X170102Y118350D01*
Y115351D01*
X170852Y114601D01*
X172352D01*
X173101Y115351D01*
X176850Y114601D02*
Y119100D01*
X174601Y116851D01*
X177600D01*
X92927Y80927D02*
X92177Y81677D01*
X90677D01*
X89928Y80927D01*
Y77928D01*
X90677Y77179D01*
X92177D01*
X92927Y77928D01*
X94426Y80927D02*
X95176Y81677D01*
X96675D01*
X97425Y80927D01*
Y80178D01*
X96675Y79428D01*
X95926D01*
X96675D01*
X97425Y78678D01*
Y77928D01*
X96675Y77179D01*
X95176D01*
X94426Y77928D01*
X104738Y82896D02*
X103988Y83646D01*
X102488D01*
X101739Y82896D01*
Y79897D01*
X102488Y79147D01*
X103988D01*
X104738Y79897D01*
X109236Y79147D02*
X106237D01*
X109236Y82146D01*
Y82896D01*
X108486Y83646D01*
X106987D01*
X106237Y82896D01*
X78678Y80927D02*
X77928Y81677D01*
X76429D01*
X75679Y80927D01*
Y77928D01*
X76429Y77179D01*
X77928D01*
X78678Y77928D01*
X80178Y77179D02*
X81677D01*
X80927D01*
Y81677D01*
X80178Y80927D01*
X10502Y86301D02*
Y90800D01*
X12752D01*
X13501Y90050D01*
Y88551D01*
X12752Y87801D01*
X10502D01*
X12002D02*
X13501Y86301D01*
X18000Y90800D02*
X16500Y90050D01*
X15001Y88551D01*
Y87051D01*
X15751Y86301D01*
X17250D01*
X18000Y87051D01*
Y87801D01*
X17250Y88551D01*
X15001D01*
X44902Y86601D02*
Y91100D01*
X47152D01*
X47901Y90350D01*
Y88851D01*
X47152Y88101D01*
X44902D01*
X46402D02*
X47901Y86601D01*
X52400Y91100D02*
X49401D01*
Y88851D01*
X50901Y89600D01*
X51650D01*
X52400Y88851D01*
Y87351D01*
X51650Y86601D01*
X50151D01*
X49401Y87351D01*
X111581Y110643D02*
Y115142D01*
X113830D01*
X114580Y114392D01*
Y112892D01*
X113830Y112143D01*
X111581D01*
X113081D02*
X114580Y110643D01*
X119079D02*
X116080D01*
X119079Y113642D01*
Y114392D01*
X118329Y115142D01*
X116830D01*
X116080Y114392D01*
X75701Y95700D02*
X72702D01*
Y93451D01*
X74201D01*
X72702D01*
Y91201D01*
X77201D02*
X78700D01*
X77950D01*
Y95700D01*
X77201Y94950D01*
X22002Y91558D02*
Y87059D01*
X24252D01*
X25001Y87809D01*
Y90808D01*
X24252Y91558D01*
X22002D01*
X26501Y90808D02*
X27251Y91558D01*
X28750D01*
X29500Y90808D01*
Y90058D01*
X28750Y89308D01*
X28001D01*
X28750D01*
X29500Y88559D01*
Y87809D01*
X28750Y87059D01*
X27251D01*
X26501Y87809D01*
X32302Y91100D02*
Y86601D01*
X34552D01*
X35301Y87351D01*
Y90350D01*
X34552Y91100D01*
X32302D01*
X39800Y86601D02*
X36801D01*
X39800Y89600D01*
Y90350D01*
X39050Y91100D01*
X37551D01*
X36801Y90350D01*
X125361Y110643D02*
Y115142D01*
X127610D01*
X128360Y114392D01*
Y112892D01*
X127610Y112143D01*
X125361D01*
X126860D02*
X128360Y110643D01*
X129859Y114392D02*
X130609Y115142D01*
X132108D01*
X132858Y114392D01*
Y113642D01*
X132108Y112892D01*
X131359D01*
X132108D01*
X132858Y112143D01*
Y111393D01*
X132108Y110643D01*
X130609D01*
X129859Y111393D01*
X132002Y80601D02*
Y85100D01*
X134251D01*
X135001Y84350D01*
Y82851D01*
X134251Y82101D01*
X132002D01*
X133501D02*
X135001Y80601D01*
X136501D02*
X138000D01*
X137250D01*
Y85100D01*
X136501Y84350D01*
X99489Y99394D02*
X100989D01*
X100239D01*
Y94895D01*
X99489D01*
X100989D01*
X106237Y98644D02*
X105487Y99394D01*
X103988D01*
X103238Y98644D01*
Y95645D01*
X103988Y94895D01*
X105487D01*
X106237Y95645D01*
X107737Y94895D02*
X109236D01*
X108486D01*
Y99394D01*
X107737Y98644D01*
D13*
X21260Y76575D02*
Y76968D01*
X18110Y76575D02*
Y76968D01*
X46850Y76575D02*
Y76968D01*
X43701Y76575D02*
Y76968D01*
X128058Y108224D02*
X128452D01*
X128058Y105074D02*
X128452D01*
X115558D02*
X115952D01*
X115558Y108224D02*
X115952D01*
X124303Y82425D02*
X124697D01*
X124303Y85575D02*
X124697D01*
X135991Y25424D02*
X140518D01*
X135991D02*
Y65976D01*
X140518D01*
X117924Y88956D02*
X126586D01*
X117924Y102342D02*
X126586D01*
X69492Y84777D02*
Y88714D01*
X56592Y84777D02*
Y88714D01*
X26925Y77461D02*
Y77854D01*
X30075Y77461D02*
Y77854D01*
X35827Y77461D02*
Y77854D01*
X38976Y77461D02*
Y77854D01*
X72185Y105256D02*
X73071D01*
X72185Y122972D02*
X73071D01*
Y105256D02*
Y122972D01*
X136375Y95903D02*
Y96297D01*
X133225Y95903D02*
Y96297D01*
X154626Y102559D02*
Y105315D01*
X164272Y102559D02*
Y105315D01*
X186614Y100591D02*
Y100984D01*
X183465Y100591D02*
Y100984D01*
X178888Y101870D02*
Y106201D01*
X169045Y101870D02*
Y106201D01*
X89665Y65650D02*
Y68405D01*
X99311Y65650D02*
Y68405D01*
X116575Y80903D02*
Y81297D01*
X113425Y80903D02*
Y81297D01*
X83661Y64764D02*
Y69095D01*
X73819Y64764D02*
Y69095D01*
D14*
X190232Y14498D02*
X189149Y15581D01*
X186983D01*
X185900Y14498D01*
Y10166D01*
X186983Y9083D01*
X189149D01*
X190232Y10166D01*
Y12332D01*
X188066D01*
X192398Y9083D02*
Y15581D01*
X196730Y9083D01*
Y15581D01*
X198896D02*
Y9083D01*
X202145D01*
X203228Y10166D01*
Y14498D01*
X202145Y15581D01*
X198896D01*
X205394Y8000D02*
X209726D01*
X211892Y15581D02*
Y9083D01*
X215141D01*
X216224Y10166D01*
Y11249D01*
X215141Y12332D01*
X211892D01*
X215141D01*
X216224Y13415D01*
Y14498D01*
X215141Y15581D01*
X211892D01*
X218390Y9083D02*
Y13415D01*
X220555Y15581D01*
X222721Y13415D01*
Y9083D01*
Y12332D01*
X218390D01*
X224887Y15581D02*
X229219D01*
X227053D01*
Y9083D01*
X16232Y13415D02*
X15149Y14498D01*
X12983D01*
X11900Y13415D01*
Y9083D01*
X12983Y8000D01*
X15149D01*
X16232Y9083D01*
Y11249D01*
X14066D01*
X18398Y8000D02*
Y14498D01*
X22730Y8000D01*
Y14498D01*
X24896D02*
Y8000D01*
X28145D01*
X29228Y9083D01*
Y13415D01*
X28145Y14498D01*
X24896D01*
X11900Y142598D02*
X14066D01*
X12983D01*
Y136100D01*
X11900D01*
X14066D01*
X17315D02*
Y142598D01*
X21647Y136100D01*
Y142598D01*
X23813Y136100D02*
Y142598D01*
X27062D01*
X28145Y141515D01*
Y139349D01*
X27062Y138266D01*
X23813D01*
X30311Y142598D02*
Y137183D01*
X31394Y136100D01*
X33560D01*
X34643Y137183D01*
Y142598D01*
X36809D02*
X41141D01*
X38975D01*
Y136100D01*
X189149Y142598D02*
X186983D01*
X185900Y141515D01*
Y137183D01*
X186983Y136100D01*
X189149D01*
X190232Y137183D01*
Y141515D01*
X189149Y142598D01*
X192398D02*
Y137183D01*
X193481Y136100D01*
X195647D01*
X196730Y137183D01*
Y142598D01*
X198896D02*
X203228D01*
X201062D01*
Y136100D01*
X205394D02*
Y142598D01*
X208643D01*
X209726Y141515D01*
Y139349D01*
X208643Y138266D01*
X205394D01*
X211892Y142598D02*
Y137183D01*
X212975Y136100D01*
X215141D01*
X216224Y137183D01*
Y142598D01*
X218390D02*
X222721D01*
X220555D01*
Y136100D01*
M02*
